<svg width="20" height="20" viewBox="0 0 20 20" fill="none" xmlns="http://www.w3.org/2000/svg">
<rect width="20" height="20" rx="4" fill="#537278"/>
<path d="M14.8835 7.66636L14.2166 7.66606L12.8565 10.4828L11.4965 7.66488L10.7251 7.66458C9.51184 7.66458 8.61493 8.65404 8.61493 9.88837V10.7561C8.20245 9.89074 7.35924 9.26942 6.36282 9.17524V8.61888C6.36282 8.47294 6.24446 8.35472 6.09851 8.35472C5.95256 8.35472 5.8342 8.47294 5.8342 8.61888V9.17524C4.4376 9.30725 3.33928 10.4729 3.31213 11.8974H2.85708C2.71128 11.8974 2.59277 12.0155 2.59277 12.1614C2.59277 12.3071 2.71113 12.4253 2.85708 12.4253H5.98474C5.19033 12.585 5.25218 13.7573 6.17193 13.7573H9.28609V13.7533C9.6256 13.7557 9.96585 13.5 9.96585 12.987V10.0291H10.3963L10.3951 16.1406H15.2949L15.2955 13.7573H16.3796V13.7533C16.7166 13.7557 17.0546 13.5 17.0546 12.987V11.4931H17.0589V9.91996C17.0589 8.78174 16.2158 7.66636 14.8835 7.66636ZM3.8406 11.8972C3.86968 10.6755 4.87011 9.68991 6.09851 9.68991C7.32691 9.68991 8.32734 10.6755 8.35626 11.8972H3.8406ZM14.8192 15.6133H13.1202V12.4061H14.8192V15.6133ZM15.7182 10.703H15.7133V12.4061H15.2962L15.2968 10.0291H15.7184V10.703H15.7182Z" fill="white"/>
<path d="M13.5388 8.31023H12.1465V7.66458H13.5388V8.31023Z" fill="white"/>
<path d="M12.8147 7.18909C13.6629 7.18909 14.3504 6.50153 14.3504 5.65337C14.3504 4.80521 13.6629 4.11765 12.8147 4.11765C11.9666 4.11765 11.279 4.80521 11.279 5.65337C11.279 6.50153 11.9666 7.18909 12.8147 7.18909Z" fill="white"/>
</svg>
