<svg width="20" height="20" viewBox="0 0 20 20" fill="none" xmlns="http://www.w3.org/2000/svg">
<path d="M16.1186 0H3.8814C1.75202 0 0 1.75202 0 3.8814V16.1186C0 18.248 1.75202 20 3.8814 20H16.1186C18.248 20 20 18.248 20 16.1186V3.90836C20.027 1.75202 18.2749 0 16.1186 0ZM15.0404 9.46092C14.8518 9.97305 14.5553 10.4313 14.1779 10.8086C13.8005 11.2129 13.3423 11.5094 12.7763 11.752C12.2372 11.9946 11.5903 12.1024 10.9164 12.1024H8.38275V16.3612H5.60647V3.69272H10.9434C11.6442 3.69272 12.2911 3.82749 12.8302 4.07008C13.3693 4.31267 13.8544 4.63612 14.2049 5.04043C14.5822 5.44474 14.8518 5.90297 15.0404 6.38814C15.2291 6.87332 15.3369 7.38545 15.3369 7.89757C15.3369 8.43666 15.2291 8.94879 15.0404 9.46092Z" fill="#537278"/>
<path d="M10.9164 6.38812H8.38275V9.4609H10.9164C11.1321 9.4609 11.3477 9.40699 11.5364 9.32613C11.7251 9.24527 11.9137 9.13745 12.0485 8.97572C12.1833 8.84095 12.3181 8.65227 12.3989 8.46359C12.4798 8.27492 12.5337 8.05928 12.5337 7.84365C12.5337 7.41238 12.3989 7.06198 12.0755 6.76548C11.8059 6.52289 11.4016 6.38812 10.9164 6.38812Z" fill="#537278"/>
</svg>
