<svg width="20" height="20" viewBox="0 0 20 20" fill="none" xmlns="http://www.w3.org/2000/svg">
<rect width="20" height="20" rx="4" fill="#537278"/>
<path d="M8.24544 8.40729H2.94116V9.43317H8.89728L8.24544 8.40729Z" fill="white"/>
<path d="M14.4205 8.40729H10.5283L11.2484 9.43317H14.4205V8.40729Z" fill="white"/>
<path d="M11.9567 14.2465L11.473 13.4857H3.63153V14.5115H12.1373C12.0769 14.4262 12.0165 14.3388 11.9567 14.2465Z" fill="white"/>
<path d="M12.4929 14.967H4.18048L4.28887 15.6631H13.0163L13.0412 15.5129C12.843 15.3471 12.6595 15.1645 12.4929 14.967Z" fill="white"/>
<path d="M11.1838 13.0303L9.18704 9.88895H3.38879L3.87851 13.0303H11.1838Z" fill="white"/>
<path d="M13.9617 9.88895H11.5677L13.5087 12.6545L13.9617 9.88895Z" fill="white"/>
<path d="M14.2751 7.95184L14.4206 7.01947V6.16027C14.4206 5.92676 14.3278 5.70281 14.1627 5.53769C13.9976 5.37258 13.7736 5.27982 13.5401 5.27982C13.3066 5.27982 13.0826 5.37258 12.9175 5.53769C12.7524 5.70281 12.6597 5.92676 12.6597 6.16027V7.01947H9.55438L10.2087 7.95184H14.2751ZM13.5395 5.92164C13.6002 5.92155 13.6585 5.94542 13.7017 5.98805C13.7449 6.03069 13.7695 6.08865 13.7702 6.14934C13.7706 6.17908 13.765 6.20858 13.7538 6.23615C13.7427 6.26373 13.7262 6.28882 13.7053 6.30999C13.6844 6.33116 13.6596 6.34798 13.6322 6.35949C13.6047 6.371 13.5753 6.37696 13.5456 6.37704H13.5395C13.4791 6.37704 13.4212 6.35305 13.3785 6.31035C13.3358 6.26765 13.3118 6.20973 13.3118 6.14934C13.3118 6.08895 13.3358 6.03103 13.3785 5.98833C13.4212 5.94563 13.4791 5.92164 13.5395 5.92164Z" fill="white"/>
<path d="M7.95581 7.95184L7.36317 7.01947H4.70329V6.16027C4.70329 5.92676 4.61053 5.70281 4.44541 5.53769C4.28029 5.37258 4.05635 5.27982 3.82284 5.27982C3.58933 5.27982 3.36538 5.37258 3.20026 5.53769C3.03514 5.70281 2.94238 5.92676 2.94238 6.16027V7.01947L3.08781 7.95184H7.95581ZM3.81919 5.92164C3.87989 5.92155 3.93817 5.94542 3.98137 5.98805C4.02458 6.03069 4.04921 6.08865 4.04993 6.14934C4.05025 6.17908 4.04468 6.20858 4.03354 6.23615C4.0224 6.26373 4.00592 6.28882 3.98503 6.30999C3.96414 6.33116 3.93927 6.34798 3.91185 6.35949C3.88443 6.371 3.855 6.37696 3.82527 6.37704H3.81919C3.7588 6.37704 3.70089 6.35305 3.65818 6.31035C3.61548 6.26765 3.59149 6.20973 3.59149 6.14934C3.59149 6.08895 3.61548 6.03103 3.65818 5.98833C3.70089 5.94563 3.7588 5.92164 3.81919 5.92164Z" fill="white"/>
<path d="M13.0318 13.4165C13.031 13.2621 13.0896 13.1133 13.1954 13.0008L7.2411 4.51569C7.18175 4.43285 7.09252 4.37634 6.99227 4.35809C6.89202 4.33985 6.7886 4.3613 6.70388 4.41791C6.61915 4.47453 6.55976 4.56187 6.53826 4.66147C6.51676 4.76108 6.53483 4.86514 6.58865 4.95166L12.3377 13.9988C12.7059 14.645 13.2478 15.1751 13.9019 15.5289C14.2613 15.692 14.6518 15.7749 15.0465 15.7718C16.1574 15.7718 17.0579 15.1586 17.0579 14.4023V14.0471C16.4905 14.2731 15.8823 14.3784 15.2721 14.3561C14.599 14.3561 13.0318 14.2644 13.0318 13.4165Z" fill="white"/>
<path d="M15.273 13.9007C16.2593 13.9007 17.0588 13.6839 17.0588 13.4165C17.0588 13.1491 16.2593 12.9323 15.273 12.9323C14.2867 12.9323 13.4872 13.1491 13.4872 13.4165C13.4872 13.6839 14.2867 13.9007 15.273 13.9007Z" fill="white"/>
</svg>
