<svg width="12" height="12" viewBox="0 0 12 12" fill="none" xmlns="http://www.w3.org/2000/svg">
<path d="M6.92234 6L11.824 1.09833C12.0587 0.863684 12.0587 0.483268 11.824 0.248625L11.7514 0.175973C11.5167 -0.0586575 11.1363 -0.0586575 10.9017 0.175973L5.99999 5.07766L1.09832 0.175985C0.863685 -0.0586449 0.483256 -0.0586449 0.248626 0.175985L0.175973 0.248638C-0.0586576 0.483281 -0.0586576 0.863696 0.175973 1.09834L5.07765 6L0.175973 10.9017C-0.0586576 11.1363 -0.0586576 11.5167 0.175973 11.7514L0.248613 11.824C0.483243 12.0587 0.863672 12.0587 1.09832 11.824L5.99999 6.92234L10.9017 11.824C11.1363 12.0587 11.5167 12.0587 11.7514 11.824L11.824 11.7514C12.0587 11.5168 12.0587 11.1363 11.824 10.9017L6.92234 6Z" fill="black"/>
</svg>
