<svg width="27" height="22" viewBox="0 0 27 22" fill="none" xmlns="http://www.w3.org/2000/svg">
<path d="M27 2.11411V4.42643H23.0061C22.544 5.64865 21.3557 6.54054 19.9694 6.54054C18.5831 6.54054 17.3949 5.64865 16.9328 4.42643H0V2.11411H16.9328C17.3949 0.891892 18.5831 0 19.9694 0C21.3557 0 22.544 0.891892 23.0061 2.11411H27ZM19.9694 15.4595C18.5831 15.4595 17.3949 16.3514 16.9328 17.5736H0V19.8859H16.9328C17.3949 21.1081 18.5831 22 19.9694 22C21.3557 22 22.544 21.1081 23.0061 19.8859H27V17.5736H23.0061C22.544 16.3514 21.3557 15.4595 19.9694 15.4595ZM7.36064 7.72973C5.97433 7.72973 4.78606 8.62162 4.32396 9.84384H0V12.1562H4.32396C4.78606 13.3784 5.97433 14.2703 7.36064 14.2703C8.74694 14.2703 9.93521 13.3784 10.3973 12.1562H27V9.84384H10.3973C9.93521 8.62162 8.74694 7.72973 7.36064 7.72973Z" fill="#537278"/>
</svg>
