<svg width="23" height="23" viewBox="0 0 23 23" fill="none" xmlns="http://www.w3.org/2000/svg">
<path d="M13.2704 3.78309C13.0197 3.71614 12.7548 3.72479 12.5091 3.80793C12.2633 3.89107 12.0478 4.04497 11.8899 4.25017C11.7319 4.45538 11.6385 4.70267 11.6215 4.96077C11.6045 5.21887 11.6647 5.4762 11.7945 5.7002C11.9242 5.9242 12.1177 6.10483 12.3505 6.21923C12.5832 6.33363 12.8448 6.37668 13.1021 6.34292C13.3593 6.30916 13.6008 6.20011 13.7959 6.02957C13.991 5.85903 14.131 5.63465 14.1982 5.38481C14.2428 5.21892 14.2542 5.0459 14.2317 4.87563C14.2092 4.70535 14.1533 4.54116 14.0671 4.39243C13.981 4.2437 13.8663 4.11333 13.7296 4.00878C13.5929 3.90423 13.4368 3.82754 13.2704 3.78309Z" fill="#537278"/>
<path d="M13.8939 16.1019C12.7692 16.5986 11.0409 17.1295 11.4944 15.4427L13.5544 7.77979L9.08071 8.08751C8.90042 8.09984 8.73242 8.18298 8.61359 8.31867C8.49475 8.45436 8.43481 8.63151 8.44691 8.81122C8.45901 8.99092 8.54217 9.1585 8.67812 9.27715C8.81408 9.39579 8.99172 9.45581 9.17204 9.44402L9.49949 9.42273C9.63009 9.41425 9.76084 9.4369 9.8809 9.48882C10.001 9.54074 10.1069 9.62042 10.1899 9.72127C10.2729 9.82213 10.3306 9.94124 10.3582 10.0688C10.3858 10.1963 10.3826 10.3285 10.3487 10.4545L8.51188 17.2871C8.16237 18.5873 9.67201 19.4396 11.662 18.4358C12.5898 17.909 13.4269 17.2371 14.1412 16.4459C14.1751 16.4094 14.1953 16.3624 14.1984 16.3127C14.2016 16.2631 14.1874 16.2138 14.1584 16.1734C14.1293 16.1329 14.0871 16.1037 14.0389 16.0907C13.9908 16.0777 13.9395 16.0816 13.8939 16.1019Z" fill="#537278"/>
<path d="M11.3443 0C9.10065 0 6.90734 0.663153 5.04177 1.9056C3.1762 3.14804 1.72217 4.91398 0.863542 6.98009C0.00491534 9.0462 -0.21974 11.3197 0.217983 13.5131C0.655707 15.7064 1.73615 17.7212 3.32269 19.3025C4.90922 20.8838 6.93059 21.9607 9.13118 22.397C11.3318 22.8333 13.6127 22.6094 15.6856 21.7536C17.7585 20.8978 19.5303 19.4485 20.7768 17.5891C22.0234 15.7296 22.6887 13.5435 22.6887 11.3071C22.6887 8.30831 21.4935 5.43229 19.366 3.31179C17.2385 1.19129 14.3531 0 11.3443 0ZM11.3443 21.3579C9.34995 21.3579 7.40034 20.7685 5.74206 19.6641C4.08377 18.5597 2.7913 16.99 2.02808 15.1534C1.26485 13.3169 1.06516 11.296 1.45425 9.34634C1.84333 7.39667 2.80373 5.60579 4.21398 4.20016C5.62424 2.79453 7.42101 1.83729 9.37708 1.44947C11.3332 1.06166 13.3607 1.2607 15.2033 2.02142C17.0459 2.78214 18.6207 4.07038 19.7288 5.72322C20.8368 7.37607 21.4282 9.31929 21.4282 11.3071C21.4252 13.9719 20.3618 16.5266 18.4714 18.4108C16.5809 20.295 14.0178 21.3549 11.3443 21.3579Z" fill="#537278"/>
</svg>
