<svg width="23" height="23" viewBox="0 0 23 23" fill="none" xmlns="http://www.w3.org/2000/svg">
<path d="M13.2705 3.78297C13.0198 3.71602 12.7549 3.72466 12.5091 3.8078C12.2634 3.89094 12.0479 4.04485 11.8899 4.25005C11.7319 4.45526 11.6386 4.70255 11.6216 4.96065C11.6046 5.21875 11.6648 5.47607 11.7946 5.70008C11.9243 5.92408 12.1178 6.10471 12.3505 6.21911C12.5833 6.33351 12.8448 6.37655 13.1021 6.3428C13.3594 6.30904 13.6009 6.19999 13.796 6.02945C13.9911 5.85891 14.1311 5.63453 14.1982 5.38469C14.2428 5.2188 14.2542 5.04578 14.2317 4.87551C14.2092 4.70523 14.1533 4.54104 14.0672 4.39231C13.981 4.24358 13.8663 4.11321 13.7296 4.00866C13.5929 3.90411 13.4369 3.82742 13.2705 3.78297Z" fill="black"/>
<path d="M13.894 16.1019C12.7693 16.5986 11.041 17.1295 11.4945 15.4427L13.5545 7.77979L9.08077 8.08751C8.90049 8.09984 8.73248 8.18298 8.61365 8.31867C8.49482 8.45436 8.43487 8.63151 8.44697 8.81122C8.45907 8.99092 8.54223 9.1585 8.67819 9.27715C8.81414 9.39579 8.99179 9.45581 9.1721 9.44402L9.49955 9.42273C9.63015 9.41425 9.7609 9.4369 9.88096 9.48882C10.001 9.54074 10.107 9.62042 10.19 9.72127C10.273 9.82213 10.3307 9.94124 10.3583 10.0688C10.3859 10.1963 10.3826 10.3285 10.3488 10.4545L8.51194 17.2871C8.16243 18.5873 9.67207 19.4396 11.662 18.4358C12.5899 17.909 13.4269 17.2371 14.1412 16.4459C14.1751 16.4094 14.1954 16.3624 14.1985 16.3127C14.2016 16.2631 14.1875 16.2138 14.1584 16.1734C14.1294 16.1329 14.0872 16.1037 14.039 16.0907C13.9908 16.0777 13.9396 16.0816 13.894 16.1019Z" fill="black"/>
<path d="M11.3443 0C9.10065 0 6.90734 0.663153 5.04177 1.9056C3.1762 3.14804 1.72217 4.91398 0.863542 6.98009C0.00491534 9.0462 -0.21974 11.3197 0.217983 13.5131C0.655707 15.7064 1.73615 17.7212 3.32269 19.3025C4.90922 20.8838 6.93059 21.9607 9.13118 22.397C11.3318 22.8333 13.6127 22.6094 15.6856 21.7536C17.7585 20.8978 19.5303 19.4485 20.7768 17.5891C22.0234 15.7296 22.6887 13.5435 22.6887 11.3071C22.6887 8.30831 21.4935 5.43229 19.366 3.31179C17.2385 1.19129 14.3531 0 11.3443 0ZM11.3443 21.3579C9.34995 21.3579 7.40034 20.7685 5.74206 19.6641C4.08377 18.5597 2.7913 16.99 2.02808 15.1534C1.26485 13.3169 1.06516 11.296 1.45425 9.34634C1.84333 7.39667 2.80373 5.60579 4.21398 4.20016C5.62424 2.79453 7.42101 1.83729 9.37708 1.44947C11.3332 1.06166 13.3607 1.2607 15.2033 2.02142C17.0459 2.78214 18.6207 4.07038 19.7288 5.72322C20.8368 7.37607 21.4282 9.31929 21.4282 11.3071C21.4252 13.9719 20.3618 16.5266 18.4714 18.4108C16.5809 20.295 14.0178 21.3549 11.3443 21.3579Z" fill="black"/>
</svg>
