<svg width="27" height="27" viewBox="0 0 27 27" fill="none" xmlns="http://www.w3.org/2000/svg">
<path d="M13.5 0C10.83 0 8.21987 0.791761 5.99981 2.27516C3.77974 3.75856 2.04942 5.86697 1.02763 8.33377C0.00584932 10.8006 -0.261496 13.515 0.259405 16.1337C0.780305 18.7525 2.06606 21.1579 3.95406 23.0459C5.84207 24.934 8.24754 26.2197 10.8663 26.7406C13.485 27.2615 16.1994 26.9942 18.6662 25.9724C21.133 24.9506 23.2414 23.2203 24.7248 21.0002C26.2082 18.7801 27 16.17 27 13.5C27 9.91958 25.5777 6.4858 23.0459 3.95406C20.5142 1.42232 17.0804 0 13.5 0ZM24.0155 8.67857H19.4207C18.7487 6.30306 17.5821 4.09644 15.9975 2.20339C17.7421 2.59291 19.3733 3.37986 20.764 4.50297C22.1548 5.62608 23.2675 7.05504 24.0155 8.67857ZM13.447 24.6182C11.6789 22.8567 10.358 20.6977 9.59465 18.3214H17.4054C16.6406 20.6981 15.3181 22.8572 13.5482 24.6182C13.5335 24.6288 13.5158 24.6345 13.4976 24.6345C13.4794 24.6345 13.4617 24.6288 13.447 24.6182ZM9.10769 16.3929C8.75409 14.4805 8.75409 12.5195 9.10769 10.6071H17.8923C18.2459 12.5195 18.2459 14.4805 17.8923 16.3929H9.10769ZM1.92858 13.5C1.92705 12.524 2.05019 11.5519 2.29501 10.6071H7.15019C6.83536 12.5229 6.83536 14.4771 7.15019 16.3929H2.29501C2.05019 15.4481 1.92705 14.476 1.92858 13.5ZM13.5 2.3625C13.517 2.35578 13.536 2.35578 13.553 2.3625C15.3238 4.1295 16.6448 6.29544 17.4054 8.67857H9.59465C10.3594 6.30187 11.6819 4.14278 13.4518 2.38179C13.4649 2.36961 13.4821 2.36274 13.5 2.3625ZM19.8498 10.6071H24.705C25.1937 12.5048 25.1937 14.4952 24.705 16.3929H19.8498C20.1647 14.4771 20.1647 12.5229 19.8498 10.6071ZM11.0025 2.20339C9.41969 4.09765 8.25333 6.30387 7.57929 8.67857H2.98447C3.73254 7.05504 4.84525 5.62608 6.23597 4.50297C7.62669 3.37986 9.25787 2.59291 11.0025 2.20339ZM2.98447 18.3214H7.57929C8.25131 20.6969 9.41788 22.9036 11.0025 24.7966C9.25787 24.4071 7.62669 23.6201 6.23597 22.497C4.84525 21.3739 3.73254 19.945 2.98447 18.3214ZM16.0023 24.7966C17.5834 22.9019 18.7481 20.6957 19.4207 18.3214H24.0155C23.2675 19.945 22.1548 21.3739 20.764 22.497C19.3733 23.6201 17.7421 24.4071 15.9975 24.7966H16.0023Z" fill="black"/>
</svg>
