<svg width="15" height="25" viewBox="0 0 15 25" fill="none" xmlns="http://www.w3.org/2000/svg">
<path d="M0.00215431 11.9651C0.0155735 11.7779 0.104485 11.5998 0.254629 11.4594L12.3734 0.299042C12.4604 0.213091 12.5674 0.142513 12.688 0.0914993C12.8085 0.0404834 12.9402 0.0100746 13.0752 0.00207708C13.2102 -0.00591853 13.3458 0.00865934 13.4739 0.0449486C13.602 0.0812378 13.72 0.138496 13.8208 0.21332C13.9217 0.288145 14.0034 0.379009 14.061 0.480515C14.1187 0.582022 14.1511 0.692097 14.1564 0.804201C14.1617 0.916306 14.1398 1.02815 14.092 1.13309C14.0441 1.23803 13.9713 1.33393 13.8778 1.41508L2.36913 12.0174L13.8778 22.6198C13.9713 22.7009 14.0441 22.7968 14.092 22.9018C14.1398 23.0067 14.1618 23.1186 14.1564 23.2307C14.1511 23.3428 14.1187 23.4528 14.061 23.5543C14.0034 23.6559 13.9217 23.7467 13.8208 23.8215C13.72 23.8964 13.602 23.9536 13.4739 23.9899C13.3458 24.0262 13.2102 24.0408 13.0752 24.0328C12.9402 24.0248 12.8085 23.9944 12.6879 23.9434C12.5674 23.8923 12.4604 23.8218 12.3734 23.7358L0.254629 12.5755C0.165925 12.4926 0.097948 12.396 0.0546092 12.2913C0.0112705 12.1865 -0.00656896 12.0756 0.00215431 11.9651Z" fill="#537278"/>
</svg>
