<svg width="19" height="39" viewBox="0 0 20 39" fill="none" xmlns="http://www.w3.org/2000/svg">
<path d="M0.0028943 19.4035C0.0209302 19.0998 0.140435 18.811 0.342238 18.5834L16.6308 0.485008C16.7477 0.345627 16.8915 0.231171 17.0535 0.148445C17.2155 0.0657157 17.3926 0.0163993 17.574 0.00343316C17.7555 -0.0095368 17.9377 0.0141067 18.1099 0.072956C18.2821 0.131805 18.4406 0.224655 18.5762 0.345997C18.7117 0.467339 18.8215 0.614689 18.899 0.779297C18.9765 0.943909 19.0201 1.12241 19.0272 1.30421C19.0344 1.486 19.0049 1.66738 18.9406 1.83756C18.8763 2.00774 18.7784 2.16325 18.6527 2.29485L3.18428 19.4883L18.6527 36.6818C18.7784 36.8134 18.8762 36.9689 18.9406 37.1391C19.0049 37.3093 19.0344 37.4907 19.0273 37.6725C19.0201 37.8543 18.9765 38.0328 18.899 38.1974C18.8215 38.362 18.7117 38.5093 18.5762 38.6307C18.4406 38.752 18.2821 38.8449 18.1099 38.9037C17.9377 38.9626 17.7555 38.9862 17.574 38.9732C17.3926 38.9603 17.2155 38.911 17.0535 38.8282C16.8915 38.7455 16.7477 38.631 16.6308 38.4917L0.342238 20.3933C0.223014 20.2589 0.131648 20.1023 0.0733975 19.9324C0.0151471 19.7625 -0.00883018 19.5827 0.0028943 19.4035Z" fill="#FFFBFB"/>
</svg>
