<svg width="13" height="18" viewBox="0 0 13 18" fill="none" xmlns="http://www.w3.org/2000/svg">
<path d="M6.5 0.191772C2.91699 0.191772 0 3.10876 0 6.69177C0 10.1715 5.96932 17.5548 6.22577 17.8682C6.29344 17.9501 6.39316 18 6.5 18C6.60687 18 6.71015 17.9501 6.77782 17.8682C7.03068 17.5548 13 10.1715 13 6.69177C13 3.10876 10.0866 0.191772 6.5 0.191772ZM6.5 9.45205C4.97919 9.45205 3.73973 8.2126 3.73973 6.69177C3.73973 5.17097 4.97919 3.9315 6.5 3.9315C8.02083 3.9315 9.26027 5.17097 9.26027 6.69177C9.26027 8.2126 8.02083 9.45205 6.5 9.45205Z" fill="#537278"/>
</svg>
