<svg width="21" height="21" viewBox="0 0 21 21" fill="none" xmlns="http://www.w3.org/2000/svg">
<path d="M12.1141 10.5L20.692 1.92207C21.1026 1.51145 21.1026 0.845719 20.692 0.435094L20.5649 0.307952C20.1543 -0.102651 19.4886 -0.102651 19.0779 0.307952L10.5 8.8859L1.92205 0.307974C1.51145 -0.102629 0.845698 -0.102629 0.435095 0.307974L0.307952 0.435116C-0.102651 0.845741 -0.102651 1.51147 0.307952 1.92209L8.88589 10.5L0.307952 19.0779C-0.102651 19.4886 -0.102651 20.1543 0.307952 20.5649L0.435073 20.692C0.845676 21.1026 1.51143 21.1026 1.92205 20.692L10.5 12.1141L19.0779 20.692C19.4886 21.1026 20.1543 21.1026 20.5649 20.692L20.692 20.5649C21.1026 20.1543 21.1026 19.4886 20.692 19.0779L12.1141 10.5Z" fill="#68792B"/>
</svg>
