<svg width="23" height="23" viewBox="0 0 23 23" fill="none" xmlns="http://www.w3.org/2000/svg">
<path fill-rule="evenodd" clip-rule="evenodd" d="M10.35 10.35H6.89471C6.27401 10.35 5.75 10.8649 5.75 11.5C5.75 12.1396 6.2625 12.65 6.89471 12.65H10.35V16.1053C10.35 16.726 10.8649 17.25 11.5 17.25C12.1396 17.25 12.65 16.7375 12.65 16.1053V12.65H16.1053C16.726 12.65 17.25 12.1351 17.25 11.5C17.25 10.8604 16.7375 10.35 16.1053 10.35H12.65V6.89471C12.65 6.27401 12.1351 5.75 11.5 5.75C10.8604 5.75 10.35 6.2625 10.35 6.89471V10.35ZM11.5 23C5.14873 23 0 17.8513 0 11.5C0 5.14873 5.14873 0 11.5 0C17.8513 0 23 5.14873 23 11.5C23 17.8513 17.8513 23 11.5 23Z" fill="#537278"/>
</svg>
