<svg width="7" height="11" viewBox="0 0 7 11" fill="none" xmlns="http://www.w3.org/2000/svg">
<path d="M3.5 0.739746C1.57069 0.739746 0 2.31043 0 4.23975C0 6.11345 3.21425 10.0891 3.35234 10.2578C3.38878 10.3019 3.44247 10.3288 3.5 10.3288C3.55754 10.3288 3.61316 10.3019 3.64959 10.2578C3.78575 10.0891 7 6.11345 7 4.23975C7 2.31043 5.43123 0.739746 3.5 0.739746ZM3.5 5.72605C2.6811 5.72605 2.0137 5.05865 2.0137 4.23975C2.0137 3.42085 2.6811 2.75344 3.5 2.75344C4.31891 2.75344 4.9863 3.42085 4.9863 4.23975C4.9863 5.05865 4.31891 5.72605 3.5 5.72605Z" fill="#C2E44D"/>
</svg>
