<svg width="30" height="27" viewBox="0 0 30 27" fill="none" xmlns="http://www.w3.org/2000/svg">
<path fill-rule="evenodd" clip-rule="evenodd" d="M30 27C30 21.8431 26.5631 17.493 21.8646 16.136C20.9862 16.9304 19.9723 17.5719 18.8785 18.0216C17.65 18.5263 16.3269 18.7844 15 18.7844C13.6738 18.7844 12.3508 18.5263 11.1223 18.0216C10.0285 17.5719 9.01385 16.9304 8.13615 16.136C3.43769 17.4923 0 21.8423 0 26.9985C0 26.9992 0 27 0 27H30ZM14.9477 16.9529H14.9462H14.9169H14.8985H14.8969H14.8915L14.8508 16.9521H14.8469H14.8462C13.7746 16.9328 12.7515 16.7117 11.8123 16.3261L11.7731 16.3107L11.7685 16.3083L11.7646 16.3068L11.7538 16.3022L11.7346 16.2937L11.7254 16.2906L11.7177 16.2867L11.7069 16.2821L11.6954 16.2774L11.6831 16.272L11.67 16.2666L11.6615 16.2628L11.6569 16.2604L11.6438 16.255C8.65539 14.9505 6.56308 11.9567 6.56308 8.47682C6.56308 3.7983 10.3438 0 15 0C19.6569 0 23.4377 3.7983 23.4377 8.47682C23.4377 11.9567 21.3454 14.9505 18.3569 16.255L18.3438 16.2604L18.3392 16.2628L18.3308 16.2666L18.3169 16.272L18.3054 16.2774L18.2938 16.2821L18.2831 16.2867L18.2754 16.2906L18.2662 16.2937L18.2469 16.3022L18.2362 16.3068L18.2323 16.3083L18.2277 16.3107L18.1885 16.3261C17.2492 16.7117 16.2262 16.9328 15.1546 16.9521H15.1538H15.1492L15.1092 16.9529H15.1038H15.1023H15.0838H15.0546H15.0531H15.0515L15 16.9536L14.9492 16.9529H14.9477Z" fill="#537278"/>
</svg>
