<svg width="40" height="40" viewBox="0 0 40 40" fill="none" xmlns="http://www.w3.org/2000/svg">
<path d="M19.9994 0C8.954 0 0 8.95471 0 20C0 31.0461 8.954 40 19.9994 40C31.0456 40 40 31.0461 40 20C40 8.95471 31.0456 0 19.9994 0ZM22.1713 32.7644C22.1713 33.1695 21.8402 33.5009 21.4348 33.5009H18.3455C17.94 33.5009 17.609 33.1695 17.609 32.7644V29.981C17.609 29.5763 17.9404 29.2445 18.3455 29.2445H21.4348C21.8402 29.2445 22.1713 29.5763 22.1713 29.981V32.7644ZM28.1144 16.623C27.9311 17.2462 27.6866 17.7829 27.3815 18.2352C27.0761 18.6871 26.7283 19.0906 26.3376 19.4444C25.9466 19.7983 25.5559 20.1465 25.1657 20.4879C24.7014 20.879 24.2735 21.2572 23.8836 21.6239C23.4921 21.9901 23.1499 22.3996 22.8577 22.8507C22.5643 23.3026 22.3382 23.8345 22.1801 24.4441C22.0776 24.8376 22.0168 25.2867 21.9719 25.7902C21.9079 26.5091 21.5152 26.6788 21.1918 26.6788C20.8676 26.6788 18.7778 26.6788 18.7778 26.6788C18.3419 26.6788 17.9953 26.3222 18.0069 25.8867C18.0069 25.8867 18.0401 24.6951 18.1506 23.9498C18.2598 23.2053 18.4368 22.5521 18.6821 21.9901C18.9255 21.4289 19.2245 20.9342 19.5791 20.5063C19.9326 20.0793 20.354 19.6582 20.8428 19.2423C21.233 18.9009 21.6057 18.5831 21.9607 18.2905C22.3146 17.9971 22.632 17.6733 22.9126 17.319C23.1927 16.9652 23.4129 16.5685 23.5722 16.1286C23.7307 15.6892 23.8096 15.1644 23.8096 14.5536C23.8096 13.8203 23.6819 13.1923 23.4249 12.6664C23.1695 12.1416 22.8577 11.7205 22.4915 11.4023C22.1248 11.0857 21.7338 10.8536 21.3187 10.7067C20.9032 10.5602 20.537 10.4869 20.2195 10.4869C18.7045 10.4869 17.5878 10.9816 16.8673 11.9707C16.3025 12.7464 16.0075 13.7339 15.837 14.9158C15.7153 15.7604 15.2226 15.9453 14.924 15.9453C14.6254 15.9453 12.4031 15.9453 12.4031 15.9453C11.9668 15.9453 11.6382 15.5895 11.6726 15.1548C11.6726 15.1548 11.8119 13.3808 12.2146 12.2817C12.6177 11.1826 13.204 10.2432 13.9738 9.46144C14.7427 8.68053 15.6709 8.07533 16.7576 7.64785C17.8444 7.22077 19.0596 7.00702 20.4033 7.00702C21.5264 7.00702 22.5699 7.17193 23.5358 7.50175C24.5004 7.83157 25.3434 8.30748 26.0635 8.92989C26.7835 9.5531 27.3511 10.3284 27.7666 11.2566C28.1817 12.1852 28.3898 13.2347 28.3898 14.4075C28.3894 15.2613 28.2974 15.9998 28.1144 16.623Z" fill="#537278"/>
</svg>
