<svg width="19" height="39" viewBox="0 0 20 39" fill="none" xmlns="http://www.w3.org/2000/svg">
<path d="M19.0254 19.4035C19.0074 19.0998 18.8879 18.811 18.6861 18.5834L2.39753 0.485008C2.2806 0.345627 2.13685 0.231171 1.97481 0.148445C1.81277 0.0657157 1.63575 0.0163993 1.45428 0.00343316C1.27281 -0.0095368 1.09057 0.0141067 0.918418 0.072956C0.746263 0.131805 0.587713 0.224655 0.452151 0.345997C0.316589 0.467339 0.206783 0.614689 0.129293 0.779297C0.0518023 0.943909 0.00821338 1.12241 0.00107185 1.30421C-0.00606969 1.486 0.023392 1.66738 0.0877307 1.83756C0.15207 2.00774 0.249946 2.16325 0.375572 2.29485L15.844 19.4883L0.375573 36.6818C0.249948 36.8134 0.152071 36.9689 0.0877323 37.1391C0.0233934 37.3093 -0.00609565 37.4907 0.00104582 37.6725C0.00818729 37.8543 0.0518039 38.0328 0.129294 38.1974C0.206785 38.362 0.316591 38.5093 0.452152 38.6307C0.587714 38.752 0.746265 38.8449 0.91842 38.9037C1.09058 38.9626 1.27281 38.9862 1.45428 38.9732C1.63575 38.9603 1.81277 38.911 1.97481 38.8282C2.13685 38.7455 2.2806 38.631 2.39753 38.4917L18.6861 20.3933C18.8053 20.2589 18.8967 20.1023 18.9549 19.9324C19.0132 19.7625 19.0372 19.5827 19.0254 19.4035Z" fill="#FFFBFB"/>
</svg>
