<svg width="15" height="25" viewBox="0 0 15 25" fill="none" xmlns="http://www.w3.org/2000/svg">
<path d="M14.9978 11.9651C14.9844 11.7779 14.8955 11.5998 14.7454 11.4594L2.62655 0.299042C2.53956 0.213091 2.43261 0.142513 2.31205 0.0914993C2.19149 0.0404834 2.05979 0.0100746 1.92477 0.00207708C1.78975 -0.00591853 1.65417 0.00865934 1.52608 0.0449486C1.398 0.0812378 1.28004 0.138496 1.17918 0.21332C1.07832 0.288145 0.996621 0.379009 0.938968 0.480515C0.881314 0.582022 0.848884 0.692097 0.84357 0.804201C0.838257 0.916306 0.860177 1.02815 0.908045 1.13309C0.955914 1.23803 1.02874 1.33393 1.1222 1.41508L12.6309 12.0174L1.1222 22.6198C1.02874 22.7009 0.955916 22.7968 0.908047 22.9018C0.860178 23.0067 0.838238 23.1186 0.843552 23.2307C0.848865 23.3428 0.881316 23.4528 0.938969 23.5543C0.996623 23.6559 1.07832 23.7467 1.17918 23.8215C1.28004 23.8964 1.398 23.9536 1.52609 23.9899C1.65417 24.0262 1.78975 24.0408 1.92477 24.0328C2.05979 24.0248 2.19149 23.9944 2.31205 23.9434C2.43261 23.8923 2.53956 23.8218 2.62656 23.7358L14.7454 12.5755C14.8341 12.4926 14.9021 12.396 14.9454 12.2913C14.9887 12.1865 15.0066 12.0756 14.9978 11.9651Z" fill="#537278"/>
</svg>
