<svg width="27" height="28" viewBox="0 0 27 28" fill="none" xmlns="http://www.w3.org/2000/svg">
<path fill-rule="evenodd" clip-rule="evenodd" d="M19.7182 17.7751L26.5988 24.657C27.1341 25.1924 27.1358 26.0587 26.5943 26.6003C26.0566 27.1381 25.1769 27.1304 24.6514 26.6048L17.7708 19.7229C13.4491 23.0868 7.19789 22.7823 3.22558 18.8092C-1.07649 14.5064 -1.07649 7.53003 3.22558 3.22716C7.52764 -1.07572 14.5027 -1.07572 18.8047 3.22716C22.7771 7.20022 23.0815 13.4526 19.7182 17.7751ZM16.8573 16.8615C20.0839 13.6343 20.0839 8.40207 16.8573 5.17492C13.6308 1.94776 8.39952 1.94776 5.17297 5.17492C1.94642 8.40207 1.94642 13.6343 5.17297 16.8615C8.39952 20.0886 13.6308 20.0886 16.8573 16.8615Z" fill="black"/>
</svg>
