<svg width="11" height="11" viewBox="0 0 11 11" fill="none" xmlns="http://www.w3.org/2000/svg">
<path fill-rule="evenodd" clip-rule="evenodd" d="M1.15122 7.56254H2.97241C3.04459 7.88051 3.13603 8.19401 3.25016 8.49926C3.30963 8.65807 3.37528 8.81448 3.44816 8.96779C3.50385 9.08398 3.56331 9.19845 3.62794 9.31017C3.67434 9.3906 3.72315 9.46967 3.77506 9.54701C3.81665 9.60923 3.85997 9.67042 3.90534 9.73023C4.0229 9.88492 4.15491 10.032 4.30169 10.162C2.90813 9.80414 1.75759 8.83751 1.15122 7.56254ZM9.84878 7.56254C9.24241 8.83751 8.09187 9.80414 6.69831 10.162C6.84509 10.032 6.9771 9.88492 7.09466 9.73023C7.14003 9.67042 7.18335 9.60923 7.22494 9.54701C7.27685 9.46967 7.32566 9.3906 7.37206 9.31017C7.43669 9.19845 7.49615 9.08398 7.55184 8.96779C7.62472 8.81448 7.69037 8.65807 7.74984 8.49892C7.86397 8.19401 7.95541 7.88051 8.02759 7.56254H9.84878ZM5.15625 7.56254V9.90107C4.96409 9.82476 4.79428 9.69242 4.65094 9.54564C4.62034 9.51435 4.59078 9.48204 4.56225 9.44904C4.52409 9.40539 4.488 9.36035 4.45294 9.31429C4.40825 9.25551 4.36597 9.19501 4.32575 9.13314C4.27522 9.05614 4.22813 8.97673 4.18378 8.89595C4.12225 8.78423 4.06588 8.66942 4.01397 8.55289C3.95209 8.41264 3.8964 8.26998 3.84622 8.12526C3.78194 7.94032 3.72659 7.75264 3.67916 7.56254H5.15625ZM7.32084 7.56254C7.27719 7.73682 7.227 7.90973 7.16925 8.07989C7.12009 8.22598 7.06509 8.37035 7.00391 8.51198C6.95269 8.63023 6.897 8.74642 6.83581 8.85985C6.78597 8.95335 6.73234 9.04445 6.67425 9.13314C6.63403 9.19501 6.59175 9.25551 6.54706 9.31429C6.512 9.36035 6.4759 9.40539 6.43775 9.44904C6.40922 9.48204 6.37966 9.51435 6.34906 9.54564C6.20572 9.69242 6.03556 9.82476 5.84375 9.90107V7.56254H7.32084ZM10.1128 4.12504C10.2427 4.56092 10.3125 5.02223 10.3125 5.50004C10.3125 5.97785 10.2427 6.43917 10.1128 6.87504H8.15375L8.15512 6.86542C8.24931 6.20404 8.27234 5.53201 8.23006 4.86548C8.21425 4.61798 8.18915 4.37082 8.15409 4.12504H10.1128ZM0.887217 4.12504H2.84591C2.81085 4.37082 2.78575 4.61798 2.76994 4.86548C2.72731 5.53545 2.75103 6.21057 2.84625 6.87504H0.887217C0.757279 6.43917 0.6875 5.97785 0.6875 5.50004C0.6875 5.02223 0.757279 4.56092 0.887217 4.12504ZM5.15625 4.12504V6.87504H3.54131C3.53856 6.85785 3.53582 6.84032 3.53341 6.82314C3.45056 6.26764 3.42306 5.70423 3.44438 5.14323C3.4571 4.80257 3.48872 4.46226 3.54131 4.12504H5.15625ZM7.45869 4.12504C7.50819 4.44267 7.53913 4.76339 7.55322 5.08445C7.57831 5.64648 7.55356 6.21126 7.4745 6.76848C7.46969 6.80423 7.46419 6.83964 7.45869 6.87504H5.84375V4.12504H7.45869ZM6.69866 0.838104C8.09222 1.19595 9.24241 2.16292 9.84878 3.43754H8.02725L8.01625 3.38907C7.92241 2.98792 7.79832 2.59295 7.63469 2.21482C7.5821 2.09348 7.52572 1.9742 7.46419 1.85732C7.41297 1.75935 7.35831 1.6631 7.29987 1.56926C7.25175 1.49157 7.20122 1.4156 7.14759 1.3417C7.01697 1.1602 6.86744 0.987635 6.69866 0.838104ZM4.30134 0.838104C4.13256 0.987635 3.98303 1.1602 3.85241 1.3417C3.79878 1.4156 3.74825 1.49157 3.70013 1.56926C3.64169 1.6631 3.58703 1.75935 3.53581 1.85732C3.47428 1.9742 3.4179 2.09348 3.36531 2.21482C3.20169 2.59295 3.07759 2.98792 2.98375 3.38907C2.98031 3.40523 2.97653 3.42139 2.97275 3.43754H1.15122C1.75759 2.16292 2.90778 1.19595 4.30134 0.838104ZM5.15625 1.09901C4.94381 1.18289 4.75956 1.33482 4.60625 1.50154C4.56809 1.54314 4.53166 1.5861 4.49625 1.6301C4.45878 1.67685 4.42303 1.72464 4.38866 1.77345C4.34466 1.83601 4.30341 1.89995 4.26388 1.96526C4.2075 2.05842 4.15491 2.15398 4.10644 2.2516C4.04731 2.36951 3.99334 2.49017 3.94419 2.61289C3.83625 2.88067 3.74928 3.15704 3.6795 3.43754H5.15625V1.09901ZM5.84375 1.09901V3.43754H7.3205C7.25072 3.15704 7.16375 2.88067 7.05581 2.61289C7.00666 2.49017 6.95269 2.36951 6.89356 2.2516C6.84509 2.15398 6.79284 2.05842 6.73612 1.96526C6.69659 1.89995 6.65534 1.83601 6.61134 1.77345C6.57697 1.72464 6.54122 1.67685 6.50375 1.6301C6.46834 1.5861 6.43191 1.54314 6.39375 1.50154C6.2401 1.33482 6.05619 1.18323 5.84375 1.09901Z" fill="#C2E44D"/>
</svg>
