<svg width="9" height="9" viewBox="0 0 9 9" fill="none" xmlns="http://www.w3.org/2000/svg">
<path d="M4.5 0C2.01789 0 0 2.01789 0 4.5C0 6.98211 2.01789 9 4.5 9C6.98211 9 9 6.98211 9 4.5C9 2.01789 6.98211 0 4.5 0ZM6.27158 5.74105C6.18632 5.86421 6.05368 5.93053 5.91158 5.93053C5.82632 5.93053 5.73158 5.90211 5.65579 5.85474L4.24421 4.86C4.13053 4.77474 4.05474 4.64211 4.05474 4.5V2.12211C4.05474 1.87579 4.25368 1.67684 4.5 1.67684C4.74632 1.67684 4.94526 1.87579 4.94526 2.12211V4.27263L6.16737 5.13474C6.36632 5.26737 6.41368 5.54211 6.27158 5.74105Z" fill="#C2E44D"/>
</svg>
