<svg width="476" height="512" viewBox="0 0 476 512" fill="none" xmlns="http://www.w3.org/2000/svg">
<path opacity="0.05" fill-rule="evenodd" clip-rule="evenodd" d="M32.0329 232.302C31.1495 232.465 30.266 232.694 29.3498 233.021C24.18 234.915 20.7771 238.541 21.726 241.121C21.8569 241.481 22.0859 241.807 22.3477 242.101C22.3968 242.134 22.454 242.175 22.5113 242.216C22.5685 242.256 22.6258 242.297 22.6749 242.33C22.8244 242.479 23.0118 242.59 23.2082 242.707C23.2698 242.744 23.3323 242.781 23.3947 242.82L23.8855 243.016C24.1473 243.114 24.4745 243.212 24.8017 243.277C24.8998 243.293 24.9898 243.318 25.0798 243.342C25.1698 243.367 25.2598 243.391 25.358 243.408C25.7506 243.44 26.176 243.473 26.6013 243.506C26.6559 243.506 26.7104 243.509 26.7649 243.513C26.874 243.52 26.9831 243.527 27.0921 243.506C27.8447 243.506 28.6627 243.44 29.5134 243.277L29.5151 243.277C29.7109 243.244 29.9066 243.212 30.0697 243.179C30.9531 242.983 31.8693 242.754 32.7855 242.428C37.9226 240.566 41.3582 236.94 40.4094 234.327C40.2785 233.968 40.0494 233.674 39.7549 233.38C39.7164 233.322 39.6552 233.276 39.5914 233.228C39.5467 233.194 39.5008 233.159 39.4605 233.119C39.2314 232.955 39.0024 232.792 38.7079 232.661C38.577 232.596 38.4134 232.531 38.2498 232.465C38.0114 232.36 37.7731 232.297 37.5 232.225C37.4357 232.208 37.3695 232.19 37.3009 232.172C37.1378 232.139 36.9421 232.106 36.7464 232.074L36.7447 232.074C36.352 232.008 35.9594 231.976 35.534 231.976C35.4522 231.976 35.3704 231.967 35.2886 231.959C35.2068 231.951 35.125 231.943 35.0432 231.943C34.2579 231.943 33.4399 232.041 32.6219 232.172L32.6216 232.172C32.4254 232.204 32.2292 232.237 32.0329 232.302ZM139.16 164.526L65.3751 155.184C51.0108 171.026 41.391 186.933 36.941 201.664L139.16 164.526ZM63.9681 129.478C63.0846 129.641 62.2012 129.87 61.285 130.229C56.1152 132.091 52.7122 135.716 53.6611 138.33C53.792 138.689 54.0211 138.983 54.2828 139.277C54.354 139.348 54.4424 139.402 54.523 139.451C54.5536 139.469 54.583 139.487 54.61 139.505C54.8391 139.701 55.0681 139.865 55.3299 139.995L55.8207 140.191C56.1152 140.289 56.4096 140.387 56.7369 140.485C56.835 140.502 56.925 140.518 57.015 140.534C57.105 140.551 57.1949 140.567 57.2931 140.583C57.6857 140.649 58.1111 140.681 58.5365 140.681C58.6183 140.681 58.7001 140.689 58.7819 140.698C58.8637 140.706 58.9455 140.714 59.0273 140.714C59.7799 140.714 60.5979 140.616 61.4486 140.485C61.5468 140.469 61.6449 140.444 61.7431 140.42C61.8412 140.395 61.9394 140.371 62.0376 140.355C62.8883 140.191 63.8045 139.963 64.7206 139.603C69.8905 137.742 73.2934 134.116 72.3445 131.536C72.2136 131.144 71.9846 130.85 71.6901 130.556C71.6389 130.479 71.5475 130.422 71.4632 130.37C71.4398 130.355 71.4169 130.341 71.3956 130.327C71.1666 130.131 70.9375 129.968 70.6758 129.837L70.185 129.641C69.8905 129.543 69.596 129.445 69.2361 129.38C69.0953 129.324 68.9304 129.292 68.7829 129.263C68.7589 129.258 68.7354 129.254 68.7125 129.249C68.3199 129.184 67.8945 129.151 67.4692 129.151C67.3874 129.151 67.3056 129.143 67.2238 129.135C67.142 129.127 67.0602 129.118 66.9783 129.118C66.1931 129.151 65.3751 129.216 64.557 129.38L63.9681 129.478ZM204.502 132.875L184.15 77.0203C154.669 88.9751 127.74 103.706 104.901 120.267L204.502 132.875ZM195.93 52.9474C195.046 53.1434 194.163 53.372 193.247 53.6986C188.077 55.5605 184.674 59.1861 185.59 61.7992H185.623C185.754 62.1585 185.983 62.4851 186.244 62.7464C186.322 62.824 186.4 62.881 186.494 62.9501C186.518 62.9683 186.544 62.9873 186.572 63.0077C186.768 63.171 186.997 63.3344 187.291 63.465C187.422 63.5303 187.586 63.5957 187.749 63.661C187.954 63.7517 188.174 63.8109 188.399 63.8714C188.498 63.8981 188.598 63.925 188.698 63.955C188.797 63.9713 188.887 63.9876 188.977 64.004C189.067 64.0203 189.157 64.0366 189.255 64.0529C189.647 64.1183 190.04 64.1509 190.465 64.1509C190.629 64.1836 190.792 64.1836 190.989 64.1836C191.741 64.1836 192.559 64.0856 193.41 63.955C193.606 63.9223 193.77 63.8896 193.966 63.8243C194.85 63.661 195.766 63.4323 196.649 63.1057C201.819 61.2112 205.255 57.5856 204.306 55.0052C204.175 54.6459 203.946 54.3192 203.652 54.0253C203.603 53.9926 203.553 53.9518 203.504 53.911C203.455 53.8701 203.406 53.8293 203.357 53.7966C203.306 53.7603 203.255 53.7223 203.203 53.6838C203.023 53.5493 202.833 53.4082 202.605 53.3067C202.474 53.2414 202.31 53.176 202.146 53.1107C201.852 53.0127 201.525 52.9147 201.198 52.8494C201.128 52.8355 201.053 52.8158 200.974 52.7952C200.867 52.7672 200.754 52.7375 200.641 52.7187C200.249 52.6861 199.856 52.6534 199.431 52.6208C199.377 52.6208 199.324 52.6173 199.269 52.6137C199.157 52.6064 199.039 52.5987 198.907 52.6208C198.155 52.6208 197.337 52.6861 196.486 52.8494C196.322 52.8821 196.126 52.9147 195.93 52.9474ZM219.357 248.275L216.02 198.267L160.166 258.531C179.242 256.898 199.136 253.435 219.357 248.275ZM234.867 119.613L301.028 48.2112C273.673 50.3996 244.519 56.3117 215.202 65.7188L234.867 119.613ZM408.253 66.764C394.903 58.0102 376.481 51.9022 354.264 49.0931L302.206 105.274L408.253 66.764ZM342.452 28.2865C341.568 28.4825 340.685 28.7111 339.769 29.0378C334.599 30.8996 331.196 34.5252 332.145 37.1383C332.276 37.4976 332.505 37.8242 332.766 38.0855C332.816 38.1345 332.873 38.1754 332.93 38.2162C332.987 38.257 333.045 38.2978 333.094 38.3468C333.323 38.5102 333.552 38.6735 333.814 38.8041C333.923 38.8695 334.032 38.9058 334.141 38.942C334.195 38.9602 334.25 38.9783 334.304 39.0001C334.599 39.1308 334.893 39.2288 335.221 39.2941C335.319 39.3104 335.409 39.3267 335.499 39.3431C335.589 39.3594 335.679 39.3757 335.777 39.3921C336.169 39.4574 336.595 39.4901 337.02 39.4901C337.184 39.5227 337.347 39.5227 337.511 39.5227C338.264 39.5227 339.082 39.4247 339.932 39.2941C340.129 39.2614 340.325 39.2288 340.521 39.1634C341.372 39.0001 342.288 38.7715 343.204 38.4448C348.341 36.5504 351.777 32.9247 350.828 30.3443C350.697 29.985 350.468 29.6584 350.174 29.3644C350.108 29.2991 349.977 29.2011 349.879 29.1358C349.65 28.9724 349.421 28.8091 349.159 28.6458L348.669 28.4498C348.374 28.3518 348.08 28.2538 347.72 28.1885C347.65 28.1747 347.575 28.1549 347.496 28.1343C347.389 28.1063 347.276 28.0767 347.163 28.0579C346.804 28.0252 346.379 27.9926 345.953 27.9599L345.953 27.9599H345.462C344.677 27.9599 343.859 28.0252 343.041 28.1885L342.452 28.2865ZM391.14 154.694C406.486 138.395 416.858 122.03 421.799 106.777L312.414 146.528L389.602 156.294C390.125 155.772 390.649 155.217 391.14 154.694ZM397.16 195.85C398.011 195.654 398.927 195.425 399.843 195.099C405.013 193.237 408.416 189.611 407.467 186.998C407.336 186.639 407.107 186.345 406.846 186.051C406.774 185.98 406.686 185.926 406.605 185.877C406.575 185.858 406.545 185.84 406.518 185.822C406.289 185.626 406.06 185.463 405.798 185.332L405.308 185.136C405.091 185.04 404.874 184.979 404.645 184.915C404.562 184.892 404.478 184.868 404.392 184.842L403.803 184.744C403.443 184.679 403.017 184.646 402.592 184.646C402.51 184.646 402.428 184.638 402.346 184.63C402.265 184.622 402.183 184.614 402.101 184.614C401.316 184.614 400.531 184.712 399.68 184.842C399.582 184.859 399.483 184.883 399.385 184.908C399.287 184.932 399.189 184.957 399.091 184.973C398.207 185.136 397.324 185.365 396.408 185.691C391.238 187.586 387.835 191.212 388.784 193.792V193.825C388.915 194.184 389.144 194.478 389.406 194.772C389.455 194.805 389.512 194.846 389.569 194.886C389.627 194.927 389.684 194.968 389.733 195.001C389.962 195.197 390.191 195.36 390.453 195.49L390.943 195.686C391.238 195.784 391.532 195.882 391.86 195.948C392.056 196.013 392.22 196.046 392.416 196.078C392.809 196.144 393.234 196.176 393.659 196.176C393.741 196.176 393.823 196.185 393.905 196.193C393.986 196.201 394.068 196.209 394.15 196.209C394.903 196.176 395.721 196.111 396.571 195.948L397.16 195.85ZM280.087 182.36L305.609 215.97C320.824 208.327 335.155 199.965 348.178 190.983L280.087 182.36ZM354.166 389.968C390.453 389.968 423.009 398.004 445.227 410.71L329.429 258.237C312.872 266.795 295.105 274.601 276.291 281.461C260.356 287.242 244.585 291.978 229.108 295.767L238.237 433.051C253.452 408.097 299.588 389.968 354.166 389.968ZM446.69 482.665C460.548 473.672 468.818 462.688 468.818 450.984C468.818 431.513 445.934 414.036 412.504 404.404C441.574 414.84 460.796 432.925 460.796 453.486C460.796 464.112 455.663 474.076 446.69 482.665ZM359.936 511.931C424.235 510.416 475.428 483.719 475.428 450.984C475.428 442.883 472.254 435.109 466.528 428.021L466.757 428.119L459.689 418.81L335.319 255.101C335.728 254.889 336.128 254.668 336.529 254.448C336.93 254.227 337.331 254.007 337.74 253.795C338.328 253.468 338.949 253.142 339.571 252.816L339.572 252.815C341.535 251.737 343.433 250.627 345.33 249.517L345.331 249.516C345.992 249.156 346.64 248.784 347.283 248.415C347.692 248.181 348.098 247.948 348.505 247.719C350.305 246.641 352.104 245.564 353.871 244.486C354.411 244.159 354.951 243.824 355.49 243.49C356.03 243.155 356.57 242.82 357.111 242.493C358.383 241.702 359.655 240.894 360.914 240.094C361.372 239.803 361.827 239.514 362.28 239.227C362.55 239.05 362.817 238.876 363.083 238.703C363.849 238.203 364.603 237.711 365.356 237.202C365.994 236.773 366.633 236.348 367.269 235.925C368.33 235.221 369.385 234.519 370.428 233.805C370.631 233.662 370.832 233.521 371.032 233.381C371.702 232.912 372.357 232.454 373.013 231.976C378.804 227.958 384.334 223.842 389.569 219.629C390.485 218.91 391.434 218.159 392.318 217.44C393.724 216.298 395.065 215.155 396.406 214.012L396.408 214.011C397.389 213.194 398.338 212.377 399.287 211.561C400.066 210.9 400.822 210.227 401.576 209.556C402.088 209.101 402.599 208.646 403.115 208.197C403.44 207.895 403.765 207.596 404.089 207.3C404.71 206.729 405.327 206.163 405.929 205.583L405.93 205.583C407.14 204.473 408.351 203.362 409.496 202.219C410.444 201.338 411.36 200.424 412.275 199.51L412.277 199.508L412.279 199.507C413.391 198.396 414.503 197.286 415.582 196.176C416.242 195.496 416.875 194.816 417.516 194.126C417.859 193.757 418.205 193.384 418.559 193.008C420.228 191.212 421.864 189.382 423.468 187.553C424.416 186.475 425.365 185.398 426.281 184.32C426.871 183.618 427.444 182.902 428.013 182.191C428.265 181.875 428.517 181.561 428.768 181.249C429.652 180.171 430.502 179.126 431.32 178.048C431.872 177.337 432.408 176.609 432.939 175.888C433.163 175.583 433.387 175.279 433.611 174.978C434.429 173.867 435.214 172.789 435.999 171.679C436.089 171.551 436.179 171.423 436.269 171.294C436.873 170.435 437.492 169.555 438.061 168.674C438.624 167.854 439.17 167.017 439.712 166.188C439.926 165.861 440.138 165.535 440.351 165.212C440.548 164.896 440.748 164.58 440.948 164.264C441.348 163.633 441.747 163.001 442.118 162.37C443.002 160.965 443.82 159.528 444.605 158.091C444.801 157.748 444.998 157.413 445.194 157.078C445.39 156.744 445.587 156.409 445.783 156.066C446.863 154.041 447.91 151.983 448.891 149.925C449.251 149.141 449.611 148.357 449.971 147.541C450.56 146.234 451.149 144.895 451.705 143.556C452.065 142.674 452.392 141.825 452.72 140.943C453.21 139.669 453.669 138.428 454.094 137.154C454.153 136.977 454.212 136.801 454.271 136.626C454.505 135.93 454.735 135.246 454.945 134.541C455.37 133.234 455.73 131.96 456.09 130.654C456.203 130.184 456.327 129.713 456.449 129.25C456.539 128.908 456.628 128.569 456.712 128.237C457.071 126.735 457.366 125.266 457.66 123.796L457.66 123.794C457.707 123.517 457.768 123.232 457.829 122.944C457.898 122.621 457.968 122.293 458.02 121.965C458.38 119.907 458.642 117.85 458.838 115.792C458.882 115.463 458.897 115.148 458.911 114.829C458.919 114.673 458.926 114.515 458.936 114.355C459.067 112.787 459.166 111.186 459.198 109.618C459.198 109.259 459.19 108.9 459.182 108.541C459.174 108.181 459.166 107.822 459.166 107.463C459.166 106.123 459.133 104.817 459.035 103.478C459.002 102.726 458.936 101.942 458.838 101.191C458.74 99.8847 458.577 98.6108 458.38 97.337C458.295 96.6827 458.184 96.0531 458.071 95.4053L458.02 95.1158C457.791 93.744 457.497 92.4048 457.17 91.0656C457.088 90.7553 457.014 90.445 456.941 90.1347C456.867 89.8244 456.793 89.5141 456.712 89.2038C456.188 87.244 455.599 85.2842 454.879 83.3897C454.787 83.0666 454.662 82.7598 454.538 82.4577C454.487 82.3323 454.436 82.2077 454.388 82.0831C454.225 81.6259 454.094 81.2012 453.963 80.7766C453.881 80.5643 453.791 80.352 453.701 80.1396C453.611 79.9273 453.521 79.715 453.439 79.5027C453.374 79.2903 453.3 79.0696 453.227 78.849C453.153 78.6287 453.079 78.4084 453.014 78.1962C452.918 77.9281 452.811 77.6713 452.706 77.4191C452.632 77.2411 452.558 77.0654 452.491 76.8897C452.466 76.8093 452.441 76.7278 452.416 76.6456C452.309 76.2932 452.198 75.9274 452.065 75.5831C451.969 75.3151 451.862 75.0583 451.757 74.8061C451.683 74.628 451.609 74.4523 451.542 74.2766C451.486 74.0952 451.424 73.9138 451.361 73.7298C451.277 73.4832 451.191 73.232 451.116 72.9701C451.034 72.7577 450.945 72.5454 450.855 72.3331C450.765 72.1208 450.675 71.9085 450.593 71.6962C450.568 71.6162 450.543 71.5351 450.519 71.4532C450.411 71.1005 450.3 70.7343 450.167 70.3896C450.072 70.1216 449.964 69.8648 449.859 69.6126C449.785 69.4346 449.712 69.2588 449.644 69.0831L449.643 69.0814C449.513 68.6573 449.382 68.2332 449.219 67.7766L448.728 66.5027C448.646 66.2904 448.572 66.0699 448.499 65.8494C448.425 65.629 448.351 65.4085 448.27 65.1962L447.779 63.9223C447.697 63.6936 447.623 63.4732 447.55 63.2527C447.476 63.0322 447.403 62.8117 447.321 62.5831V62.5504C446.634 60.7213 445.881 58.9575 445.063 57.1936C445.024 57.109 444.986 57.0225 444.947 56.9351C444.821 56.6514 444.69 56.3577 444.539 56.0831C443.721 54.3846 442.871 52.7514 441.922 51.1182C441.824 50.9712 441.734 50.8243 441.644 50.6773C441.554 50.5303 441.464 50.3833 441.366 50.2363C440.482 48.7338 439.533 47.2966 438.519 45.8594C438.437 45.7451 438.363 45.6308 438.29 45.5164C438.216 45.4021 438.143 45.2878 438.061 45.1735C436.948 43.6383 435.77 42.1685 434.527 40.6986C434.266 40.3722 433.971 40.0459 433.677 39.7195L433.676 39.7187C432.4 38.2489 431.124 36.8443 429.717 35.4725C429.586 35.3418 429.423 35.1785 429.259 35.0478C427.983 33.774 426.609 32.5328 425.202 31.3242C425.067 31.2045 424.925 31.0848 424.78 30.9619C424.607 30.8166 424.43 30.6669 424.253 30.5076C422.748 29.2664 421.21 28.0579 419.607 26.882L418.527 26.0981C416.956 25.0202 415.386 23.9423 413.75 22.897C413.611 22.8277 413.488 22.7419 413.358 22.6513C413.305 22.614 413.251 22.5759 413.193 22.5378C411.426 21.4599 409.594 20.4146 407.729 19.4021C407.304 19.1408 406.846 18.9123 406.388 18.6837L406.387 18.6835C404.522 17.6709 402.625 16.7237 400.661 15.8091C400.301 15.6784 399.974 15.5151 399.647 15.3518C397.815 14.5352 395.982 13.7513 394.085 13L394.083 12.9996C393.691 12.8364 393.299 12.6733 392.874 12.5101C390.813 11.6935 388.686 10.9422 386.493 10.2236C386.003 10.0277 385.479 9.86442 384.956 9.70114L384.956 9.70103C382.731 8.98244 380.44 8.26384 378.117 7.61057C378.068 7.59424 378.027 7.58608 377.986 7.57791C377.945 7.56975 377.904 7.56158 377.855 7.54525C375.565 6.92464 373.209 6.3367 370.853 5.78142C370.575 5.71607 370.305 5.65071 370.035 5.58536C369.765 5.52006 369.495 5.45476 369.217 5.38946C366.828 4.86685 364.407 4.34423 361.953 3.88695C361.685 3.85125 361.417 3.8058 361.154 3.76126C360.936 3.72428 360.721 3.68793 360.513 3.6583C358.19 3.23368 355.867 2.84172 353.479 2.51508C353.119 2.44976 352.759 2.38443 352.399 2.35177C349.781 1.99247 347.163 1.66583 344.48 1.40453L344.479 1.40434C343.89 1.33908 343.302 1.27381 342.681 1.20855C339.998 0.947239 337.249 0.718595 334.501 0.555278C334.353 0.538946 334.214 0.53078 334.075 0.522615C333.936 0.514449 333.797 0.506283 333.65 0.489951C331.032 0.359297 328.382 0.228644 325.699 0.163317C325.175 0.130654 324.619 0.0979902 324.063 0.0979902C321.674 0.0326634 319.253 0 316.832 0H315.654C315.228 0 314.795 0.008166 314.361 0.0163319C313.928 0.0244977 313.494 0.0326634 313.069 0.0326634C310.907 0.0644057 308.744 0.126995 306.552 0.190454L306.361 0.19598C305.413 0.228613 304.432 0.261246 303.452 0.293879L303.449 0.293971L303.056 0.314588C300.697 0.438457 298.309 0.563867 295.891 0.718595L295.802 0.723486C295.24 0.754597 294.651 0.78718 294.091 0.849249C290.95 1.07789 287.776 1.3392 284.602 1.66583C283.817 1.73116 282.999 1.82915 282.181 1.92714C280.046 2.15746 277.887 2.41316 275.702 2.67187C275.408 2.70667 275.113 2.74153 274.819 2.77639L274.818 2.77644C273.804 2.90708 272.79 3.03772 271.743 3.20101C269.256 3.52765 266.704 3.88695 264.184 4.31157C263.508 4.39597 262.832 4.50461 262.134 4.61661C262.022 4.63464 261.909 4.65275 261.796 4.67087C258.524 5.19348 255.186 5.78142 251.849 6.40203C251.505 6.46735 251.17 6.54085 250.835 6.61434C250.499 6.68783 250.164 6.76133 249.82 6.82665C247.137 7.34927 244.421 7.90454 241.706 8.49249C241.182 8.60681 240.65 8.72113 240.119 8.83545C239.587 8.94977 239.055 9.0641 238.532 9.17842C236.923 9.53285 235.302 9.9139 233.676 10.2961C232.754 10.5127 231.831 10.7296 230.908 10.9422L230.907 10.9425C229.991 11.171 229.075 11.3996 228.127 11.6282C224.691 12.4774 221.288 13.392 217.82 14.3392C217.394 14.4699 216.936 14.6005 216.511 14.6985C213.5 15.5478 210.457 16.4297 207.414 17.3443C206.891 17.5076 206.359 17.6709 205.827 17.8343C205.296 17.9976 204.764 18.1609 204.241 18.3242L204.236 18.3258C201.685 19.1418 199.135 19.9579 196.551 20.7739C196.044 20.9536 195.529 21.1251 195.013 21.2965C194.498 21.468 193.983 21.6395 193.476 21.8192C189.974 22.995 186.473 24.2036 182.94 25.4775C58.7328 70.6183 -19.6981 157.601 4.31871 223.548C4.35627 223.638 4.39384 223.727 4.43101 223.814C4.55572 224.107 4.67597 224.39 4.7768 224.692L5.2676 226.161C5.30518 226.251 5.34277 226.34 5.37995 226.427C5.50464 226.72 5.62487 227.003 5.72569 227.305C5.80751 227.55 5.88933 227.787 5.97114 228.023C6.05293 228.26 6.13471 228.497 6.2165 228.742C6.25406 228.832 6.29162 228.92 6.32879 229.007C6.4535 229.301 6.57375 229.583 6.67458 229.885L7.16539 231.355C7.20297 231.445 7.24055 231.533 7.27774 231.621C7.40243 231.914 7.52266 232.196 7.62347 232.498C7.78708 232.988 7.95068 233.478 8.11428 233.935C8.21509 234.237 8.33532 234.52 8.46001 234.813C8.4972 234.9 8.53478 234.988 8.57237 235.079L9.06317 236.548L9.06332 236.549C9.22687 236.973 9.39043 237.398 9.5867 237.855C9.71758 238.28 9.84846 238.704 10.0121 239.129L10.5029 240.403C10.5847 240.631 10.6583 240.852 10.7319 241.072C10.8055 241.293 10.8792 241.513 10.961 241.742C11.0618 242.044 11.182 242.326 11.3067 242.619C11.3439 242.707 11.3815 242.795 11.419 242.885C11.5009 243.13 11.5827 243.367 11.6645 243.604C11.7463 243.841 11.8281 244.077 11.9099 244.322C26.7977 285.119 76.8926 306.938 142.399 306.938C145.409 306.938 148.452 306.873 151.528 306.775C152.379 306.742 153.262 306.709 154.146 306.677L154.293 306.671C156.601 306.575 158.94 306.477 161.311 306.317C161.692 306.302 162.08 306.278 162.472 306.254C162.889 306.229 163.311 306.204 163.733 306.187C170.244 305.729 176.886 305.076 183.659 304.227C183.954 304.194 184.281 304.162 184.608 304.129C187.815 303.704 191.054 303.247 194.326 302.724C194.621 302.692 194.915 302.659 195.21 302.594C204.208 301.189 213.337 299.425 222.597 297.335L232.446 445.986L232.904 452.813L232.969 452.747C234.833 485.62 288.301 511.967 354.048 511.999C354.278 512 354.509 512 354.739 512C356.482 512 358.214 511.977 359.936 511.931ZM265.257 484.909C249.213 475.531 239.481 463.681 239.481 450.984C239.481 430.422 265.001 412.083 301.522 402.86C269.926 412.992 248.682 431.87 248.682 453.486C248.682 465.051 254.763 475.832 265.257 484.909ZM230.515 182.229C227.047 182.229 223.971 181.543 221.452 180.367L228.683 289.071C243.701 285.348 258.884 280.742 274.001 275.255C292.03 268.689 309.208 261.177 325.372 252.913L259.8 166.583C258.982 168.282 257.869 169.948 256.364 171.516C253.125 174.978 248.38 177.95 243.014 179.877C238.793 181.413 234.474 182.229 230.515 182.229ZM239.742 155.641C238.106 155.968 236.405 156.425 234.703 157.046C225.574 160.377 219.521 166.779 221.19 171.385C222.204 174.161 225.803 175.631 230.515 175.631C233.591 175.631 237.157 175.011 240.757 173.671C249.886 170.372 255.939 163.97 254.237 159.365C254.221 159.316 254.197 159.267 254.172 159.218C254.147 159.169 254.123 159.12 254.107 159.071L253.943 158.842L253.845 158.875C252.569 156.36 248.969 155.053 244.356 155.151C244.18 155.151 243.996 155.159 243.808 155.167C243.612 155.175 243.411 155.184 243.211 155.184C243.037 155.198 242.857 155.219 242.671 155.241C242.436 155.268 242.19 155.296 241.935 155.315C241.346 155.38 240.757 155.445 240.135 155.576C240.004 155.608 239.873 155.641 239.742 155.641ZM52.3196 241.023C65.8986 249.516 84.3529 255.428 106.57 258.041L157.908 202.676L52.3196 241.023ZM125.744 294.951C126.628 294.755 127.511 294.526 128.427 294.199C133.597 292.337 137 288.712 136.051 286.099C135.92 285.74 135.691 285.413 135.43 285.152C135.38 285.103 135.323 285.062 135.266 285.021C135.209 284.98 135.151 284.939 135.102 284.89C134.906 284.727 134.644 284.564 134.382 284.433C134.219 284.335 134.055 284.27 133.892 284.237C133.63 284.106 133.303 284.008 132.975 283.943C132.906 283.931 132.84 283.916 132.775 283.9C132.658 283.872 132.546 283.845 132.419 283.845C132.027 283.78 131.602 283.747 131.177 283.714L131.176 283.714H130.685C129.932 283.714 129.114 283.812 128.264 283.943L127.675 284.041C126.824 284.237 125.908 284.466 124.992 284.792C119.855 286.687 116.419 290.28 117.368 292.893C117.499 293.252 117.728 293.579 118.022 293.84C118.061 293.898 118.122 293.944 118.186 293.992C118.23 294.026 118.276 294.061 118.317 294.101C118.546 294.265 118.775 294.428 119.069 294.559C119.2 294.657 119.364 294.722 119.527 294.787L119.527 294.787C119.822 294.885 120.116 294.983 120.444 295.049C120.509 295.059 120.574 295.074 120.64 295.089C120.771 295.118 120.902 295.147 121.033 295.147C121.392 295.212 121.817 295.244 122.242 295.277L122.243 295.277H122.734C123.519 295.277 124.337 295.179 125.155 295.049L125.744 294.951ZM437.406 83.6837C436.523 83.847 435.64 84.0756 434.723 84.4349C429.554 86.2967 426.151 89.9224 427.1 92.5354C427.23 92.8947 427.459 93.1887 427.721 93.4827C427.799 93.5602 427.877 93.6174 427.971 93.6864C427.995 93.7046 428.021 93.7236 428.048 93.744C428.245 93.9073 428.507 94.0706 428.768 94.2013C428.83 94.2319 428.898 94.2626 428.971 94.2932C429.053 94.3279 429.14 94.3626 429.226 94.3972C429.521 94.4952 429.848 94.5932 430.175 94.6912C430.273 94.7076 430.363 94.7239 430.454 94.7402C430.543 94.7566 430.633 94.7729 430.731 94.7892C431.124 94.8545 431.549 94.8872 431.942 94.8872C432.04 94.8872 432.122 94.8954 432.204 94.9035C432.286 94.9117 432.367 94.9199 432.466 94.9199C433.218 94.9199 434.036 94.8219 434.887 94.6912C434.985 94.6749 435.075 94.6504 435.165 94.6259C435.255 94.6014 435.345 94.5769 435.443 94.5606C436.327 94.3972 437.243 94.1686 438.126 93.842C443.296 91.9475 446.732 88.3219 445.783 85.7414C445.652 85.3495 445.423 85.0555 445.128 84.7615C445.03 84.6636 444.932 84.5982 444.834 84.5329C444.605 84.3369 444.376 84.1736 444.081 84.043C443.951 83.9776 443.787 83.9123 443.623 83.847C443.329 83.749 443.002 83.651 442.674 83.5857C442.511 83.5203 442.315 83.4877 442.118 83.455C441.726 83.3897 441.333 83.357 440.908 83.357C440.809 83.357 440.728 83.3488 440.646 83.3407C440.564 83.3325 440.482 83.3244 440.384 83.3244C439.631 83.3244 438.813 83.4223 437.963 83.5857C437.799 83.6183 437.603 83.651 437.406 83.6837Z" fill="#E6EDEE"/>
</svg>
