<svg width="72" height="77" viewBox="0 0 72 77" fill="none" xmlns="http://www.w3.org/2000/svg">
<g filter="url(#filter0_d)">
<path fill-rule="evenodd" clip-rule="evenodd" d="M8.31213 31.2715C8.19321 31.2935 8.07428 31.3243 7.95095 31.3682C7.25501 31.6233 6.79692 32.1113 6.92466 32.4587C6.94228 32.5071 6.97311 32.551 7.00835 32.5906C7.01495 32.595 7.02266 32.6005 7.03037 32.606C7.03808 32.6115 7.04579 32.617 7.05239 32.6214C7.07252 32.6415 7.09775 32.6565 7.1242 32.6722C7.13248 32.6771 7.14089 32.6821 7.1493 32.6873L7.21537 32.7137C7.2506 32.7269 7.29465 32.7401 7.3387 32.7489C7.35191 32.7511 7.36402 32.7544 7.37614 32.7577C7.38825 32.761 7.40036 32.7643 7.41358 32.7665C7.46643 32.7709 7.52369 32.7753 7.58096 32.7797C7.5883 32.7797 7.59564 32.7802 7.60298 32.7807C7.61766 32.7816 7.63234 32.7826 7.64703 32.7797C7.74833 32.7797 7.85845 32.7709 7.97297 32.7489C7.9994 32.7445 8.02583 32.7401 8.04785 32.7357C8.16678 32.7093 8.29011 32.6786 8.41344 32.6346C9.10498 32.384 9.56747 31.8959 9.43973 31.5441C9.42211 31.4958 9.39128 31.4562 9.35164 31.4166C9.34645 31.4088 9.33821 31.4026 9.32962 31.3961C9.32361 31.3915 9.31743 31.3869 9.312 31.3814C9.28116 31.3595 9.25033 31.3375 9.21069 31.3199C9.19307 31.3111 9.17105 31.3023 9.14902 31.2935C9.11693 31.2793 9.08485 31.2708 9.04808 31.2611C9.03943 31.2588 9.03052 31.2564 9.02129 31.2539C8.99932 31.2495 8.97298 31.2452 8.94662 31.2408L8.94641 31.2407C8.89355 31.2319 8.8407 31.2275 8.78343 31.2275C8.77242 31.2275 8.76141 31.2264 8.7504 31.2253C8.73939 31.2242 8.72838 31.2231 8.71736 31.2231C8.61165 31.2231 8.50153 31.2363 8.39142 31.2539C8.36499 31.2583 8.33856 31.2627 8.31213 31.2715ZM22.7331 22.1477L12.8005 20.8902C10.8668 23.0227 9.57187 25.1641 8.97284 27.1471L22.7331 22.1477ZM12.6111 17.4297C12.4922 17.4517 12.3733 17.4825 12.2499 17.5309C11.554 17.7815 11.0959 18.2696 11.2236 18.6213C11.2412 18.6697 11.2721 18.7093 11.3073 18.7488C11.3169 18.7584 11.3288 18.7657 11.3397 18.7723C11.3438 18.7748 11.3477 18.7772 11.3514 18.7796C11.3822 18.806 11.413 18.828 11.4483 18.8456L11.5143 18.872C11.554 18.8851 11.5936 18.8983 11.6377 18.9115C11.6509 18.9137 11.663 18.9159 11.6751 18.9181C11.6872 18.9203 11.6993 18.9225 11.7125 18.9247C11.7654 18.9335 11.8227 18.9379 11.8799 18.9379C11.8909 18.9379 11.902 18.939 11.913 18.9401C11.924 18.9412 11.935 18.9423 11.946 18.9423C12.0473 18.9423 12.1574 18.9291 12.2719 18.9115C12.2852 18.9093 12.2984 18.906 12.3116 18.9027C12.3248 18.8994 12.338 18.8961 12.3512 18.8939C12.4657 18.872 12.5891 18.8412 12.7124 18.7928C13.4084 18.5422 13.8664 18.0541 13.7387 17.7067C13.7211 17.654 13.6903 17.6144 13.6506 17.5748C13.6437 17.5645 13.6314 17.5569 13.6201 17.5498C13.6169 17.5479 13.6138 17.546 13.611 17.5441C13.5801 17.5177 13.5493 17.4957 13.5141 17.4781L13.448 17.4517C13.4084 17.4385 13.3687 17.4253 13.3203 17.4165C13.3013 17.409 13.2791 17.4047 13.2593 17.4008C13.256 17.4002 13.2529 17.3996 13.2498 17.399C13.1969 17.3902 13.1397 17.3858 13.0824 17.3858C13.0714 17.3858 13.0604 17.3847 13.0494 17.3836C13.0384 17.3825 13.0273 17.3814 13.0163 17.3814C12.9106 17.3858 12.8005 17.3946 12.6904 17.4165L12.6111 17.4297ZM31.5292 17.887L28.7895 10.3681C24.8209 11.9774 21.1958 13.9605 18.1214 16.1898L31.5292 17.887ZM30.3752 7.12755C30.2563 7.15393 30.1373 7.18471 30.014 7.22868C29.3181 7.47931 28.86 7.96738 28.9833 8.31914H28.9877C29.0053 8.3675 29.0362 8.41147 29.0714 8.44665C29.0819 8.45709 29.0923 8.46477 29.105 8.47406C29.1083 8.47651 29.1118 8.47907 29.1155 8.48183C29.1419 8.50381 29.1727 8.5258 29.2124 8.54338C29.23 8.55218 29.252 8.56097 29.274 8.56977C29.3015 8.58197 29.3312 8.58995 29.3615 8.59809C29.3748 8.60168 29.3883 8.6053 29.4018 8.60934C29.415 8.61154 29.4271 8.61373 29.4392 8.61593C29.4513 8.61813 29.4634 8.62033 29.4766 8.62253C29.5295 8.63132 29.5824 8.63572 29.6396 8.63572C29.6616 8.64012 29.6837 8.64012 29.7101 8.64012C29.8114 8.64012 29.9215 8.62693 30.036 8.60934C30.0625 8.60494 30.0845 8.60054 30.1109 8.59175C30.2298 8.56977 30.3532 8.53899 30.4721 8.49502C31.168 8.23999 31.6305 7.75192 31.5028 7.40456C31.4852 7.35619 31.4543 7.31222 31.4147 7.27265C31.4081 7.26825 31.4015 7.26276 31.3949 7.25726C31.3883 7.25176 31.3817 7.24627 31.3751 7.24187C31.3682 7.23698 31.3613 7.23187 31.3544 7.22668C31.3301 7.20858 31.3046 7.18959 31.2737 7.17591C31.2561 7.16712 31.2341 7.15833 31.2121 7.14953C31.1724 7.13634 31.1284 7.12315 31.0843 7.11436C31.075 7.11249 31.0649 7.10983 31.0543 7.10705C31.0399 7.10329 31.0247 7.0993 31.0095 7.09677C30.9566 7.09237 30.9038 7.08798 30.8465 7.08358C30.8393 7.08358 30.8321 7.08311 30.8248 7.08263C30.8096 7.08164 30.7938 7.08062 30.776 7.08358C30.6747 7.08358 30.5646 7.09237 30.4501 7.11436C30.4281 7.11875 30.4016 7.12315 30.3752 7.12755ZM33.5289 33.4216L33.0797 26.6898L25.5609 34.8023C28.1288 34.5825 30.8069 34.1164 33.5289 33.4216ZM35.6168 16.1018L44.523 6.48998C40.8407 6.78458 36.9161 7.58044 32.9696 8.84678L35.6168 16.1018ZM58.9572 8.98748C57.1601 7.80908 54.6802 6.98684 51.6895 6.6087L44.6816 14.1716L58.9572 8.98748ZM50.0994 3.80781C49.9804 3.83419 49.8615 3.86497 49.7382 3.90894C49.0422 4.15957 48.5842 4.64764 48.7119 4.9994C48.7295 5.04776 48.7603 5.09173 48.7956 5.12691C48.8022 5.13351 48.8099 5.139 48.8176 5.1445C48.8253 5.14999 48.833 5.15549 48.8396 5.16209C48.8705 5.18407 48.9013 5.20606 48.9365 5.22364C48.9512 5.23244 48.9659 5.23732 48.9806 5.24221C48.9879 5.24465 48.9953 5.2471 49.0026 5.25003C49.0422 5.26761 49.0819 5.28081 49.1259 5.2896C49.1524 5.294 49.1744 5.29839 49.2008 5.30279C49.2537 5.31158 49.3109 5.31598 49.3682 5.31598C49.3902 5.32038 49.4122 5.32038 49.4343 5.32038C49.5356 5.32038 49.6457 5.30719 49.7602 5.2896C49.7866 5.2852 49.8131 5.28081 49.8395 5.27201C49.954 5.25003 50.0773 5.21925 50.2007 5.17528C50.8922 4.92025 51.3547 4.43218 51.227 4.08482C51.2093 4.03645 51.1785 3.99248 51.1389 3.95291C51.1301 3.94411 51.1124 3.93092 51.0992 3.92213C51.0684 3.90015 51.0376 3.87816 51.0023 3.85617L50.9363 3.82979C50.8966 3.8166 50.857 3.80341 50.8085 3.79462C50.7992 3.79275 50.789 3.79009 50.7784 3.78731C50.7641 3.78355 50.7489 3.77956 50.7336 3.77703C50.6852 3.77263 50.6279 3.76823 50.5707 3.76384H50.5046C50.3989 3.76384 50.2888 3.77263 50.1786 3.79462L50.0994 3.80781ZM56.6535 20.8242C58.7193 18.6301 60.1156 16.4272 60.7807 14.3738L46.0559 19.725L56.4465 21.0397C56.517 20.9693 56.5875 20.8946 56.6535 20.8242ZM57.464 26.3645C57.5785 26.3381 57.7019 26.3073 57.8252 26.2633C58.5211 26.0127 58.9792 25.5246 58.8515 25.1729C58.8339 25.1245 58.803 25.0849 58.7678 25.0454C58.7582 25.0358 58.7463 25.0285 58.7355 25.0219C58.7313 25.0194 58.7274 25.017 58.7237 25.0146C58.6929 24.9882 58.6621 24.9662 58.6268 24.9486L58.5608 24.9222C58.5316 24.9093 58.5024 24.9011 58.4715 24.8924C58.4604 24.8893 58.4491 24.8861 58.4374 24.8827L58.3582 24.8695C58.3097 24.8607 58.2524 24.8563 58.1952 24.8563C58.1842 24.8563 58.1732 24.8552 58.1621 24.8541C58.1511 24.853 58.1401 24.8519 58.1291 24.8519C58.0234 24.8519 57.9177 24.8651 57.8032 24.8827C57.7899 24.8849 57.7767 24.8882 57.7635 24.8915C57.7503 24.8948 57.7371 24.8981 57.7239 24.9002C57.6049 24.9222 57.486 24.953 57.3627 24.997C56.6668 25.252 56.2087 25.7401 56.3364 26.0874V26.0918C56.354 26.1402 56.3848 26.1798 56.4201 26.2194C56.4261 26.2234 56.433 26.2283 56.44 26.2332C56.4484 26.2392 56.4569 26.2453 56.4641 26.2501C56.495 26.2765 56.5258 26.2985 56.561 26.3161L56.6271 26.3425C56.6668 26.3557 56.7064 26.3688 56.7504 26.3776C56.7769 26.3864 56.7989 26.3908 56.8253 26.3952C56.8782 26.404 56.9354 26.4084 56.9927 26.4084C57.0037 26.4084 57.0147 26.4095 57.0257 26.4106C57.0367 26.4117 57.0478 26.4128 57.0588 26.4128C57.1601 26.4084 57.2702 26.3996 57.3847 26.3776L57.464 26.3645ZM41.704 24.5485L45.1397 29.073C47.1879 28.0441 49.1171 26.9185 50.8702 25.7093L41.704 24.5485ZM51.6762 52.4959C56.561 52.4959 60.9437 53.5775 63.9345 55.288L48.3463 34.7627C46.1175 35.9147 43.7258 36.9656 41.1931 37.889C39.048 38.6673 36.925 39.3048 34.8415 39.8149L36.0704 58.2955C38.1186 54.9362 44.3292 52.4959 51.6762 52.4959ZM64.13 64.9752C65.9965 63.7645 67.1103 62.2855 67.1103 60.7095C67.1103 58.0893 64.0316 55.7372 59.5337 54.4404C63.4446 55.8454 66.0303 58.2791 66.0303 61.046C66.0303 62.4769 65.3387 63.8187 64.13 64.9752ZM52.3202 68.9168C61.038 68.7467 68 65.1387 68 60.7095C68 59.619 67.5727 58.5725 66.8019 57.6184L66.8328 57.6316L65.8813 56.3784L49.1391 34.3406C49.1942 34.312 49.2482 34.2823 49.3022 34.2526C49.3561 34.223 49.4101 34.1933 49.4651 34.1647C49.5444 34.1208 49.6281 34.0768 49.7118 34.0328C49.976 33.8878 50.2314 33.7383 50.4868 33.5888L50.487 33.5887C50.5759 33.5403 50.6631 33.4903 50.7498 33.4406C50.8048 33.409 50.8595 33.3776 50.9142 33.3469L50.9149 33.3465C51.1569 33.2015 51.399 33.0566 51.6366 32.9116C51.7093 32.8676 51.782 32.8226 51.8546 32.7775C51.9273 32.7324 52 32.6873 52.0727 32.6434C52.2438 32.537 52.415 32.4282 52.5844 32.3206C52.6461 32.2814 52.7075 32.2424 52.7686 32.2037C52.8049 32.1799 52.8409 32.1564 52.8767 32.133C52.9799 32.0657 53.0813 31.9996 53.1826 31.9311C53.2685 31.8734 53.3544 31.8163 53.4401 31.7593C53.5828 31.6644 53.725 31.57 53.8654 31.4738C53.8927 31.4546 53.9199 31.4356 53.9468 31.4167C54.037 31.3536 54.1252 31.2919 54.2133 31.2275C54.993 30.6867 55.7374 30.1327 56.4421 29.5655C56.5654 29.4687 56.6932 29.3676 56.8121 29.2709C57.0015 29.117 57.1821 28.9631 57.3627 28.8092C57.4948 28.6993 57.6226 28.5893 57.7503 28.4794C57.8552 28.3904 57.957 28.2998 58.0584 28.2096C58.1274 28.1482 58.1961 28.087 58.2657 28.0265C58.3094 27.9858 58.3532 27.9457 58.3968 27.9056C58.4804 27.8289 58.5634 27.7528 58.6445 27.6748C58.8074 27.5253 58.9704 27.3758 59.1246 27.2219C59.2523 27.1032 59.3756 26.9801 59.4989 26.857L59.499 26.8569L59.4994 26.8565C59.649 26.7072 59.7986 26.5578 59.9438 26.4084C60.0327 26.3168 60.1179 26.2253 60.2041 26.1325C60.2504 26.0827 60.297 26.0326 60.3447 25.9819C60.5693 25.7401 60.7895 25.4938 61.0054 25.2476L61.0055 25.2474C61.1332 25.1024 61.2609 24.9574 61.3842 24.8123C61.4635 24.7179 61.5407 24.6214 61.6173 24.5257C61.6512 24.4832 61.6851 24.4409 61.7189 24.399C61.8378 24.2539 61.9524 24.1132 62.0625 23.9681C62.1367 23.8723 62.2088 23.7744 62.2803 23.6774C62.3105 23.6363 62.3407 23.5953 62.3708 23.5548C62.4809 23.4053 62.5866 23.2602 62.6924 23.1107C62.7044 23.0935 62.7165 23.0763 62.7286 23.059C62.8099 22.9433 62.8932 22.8247 62.9699 22.7061C63.0457 22.5958 63.1192 22.4832 63.1921 22.3716C63.2208 22.3275 63.2495 22.2836 63.2782 22.2401C63.3046 22.1976 63.3315 22.155 63.3585 22.1125C63.4123 22.0275 63.4661 21.9425 63.516 21.8575C63.635 21.6684 63.7451 21.475 63.8508 21.2815C63.8772 21.2353 63.9037 21.1903 63.9301 21.1452C63.9565 21.1001 63.9829 21.0551 64.0094 21.0089C64.1547 20.7363 64.2957 20.4593 64.4278 20.1823C64.4763 20.0767 64.5247 19.9712 64.5732 19.8613C64.6524 19.6854 64.7317 19.5051 64.8066 19.3248C64.8551 19.2061 64.8991 19.0918 64.9431 18.9731C65.0092 18.8016 65.0709 18.6345 65.1281 18.463C65.1361 18.4392 65.1441 18.4155 65.152 18.392C65.1835 18.2982 65.2145 18.2061 65.2427 18.1113C65.2999 17.9354 65.3484 17.7639 65.3968 17.588C65.412 17.5247 65.4287 17.4615 65.4452 17.399C65.4573 17.353 65.4693 17.3074 65.4805 17.2626C65.529 17.0604 65.5686 16.8625 65.6082 16.6647L65.6083 16.6647C65.6145 16.6273 65.6227 16.589 65.631 16.5502C65.6403 16.5067 65.6497 16.4625 65.6567 16.4184C65.7052 16.1414 65.7404 15.8644 65.7668 15.5874C65.7727 15.5431 65.7747 15.5008 65.7767 15.4577C65.7776 15.4367 65.7786 15.4156 65.78 15.3939C65.7977 15.1829 65.8109 14.9674 65.8153 14.7564C65.8153 14.708 65.8142 14.6596 65.8131 14.6113C65.812 14.5629 65.8109 14.5145 65.8109 14.4662C65.8109 14.2859 65.8065 14.11 65.7933 13.9297C65.7888 13.8286 65.78 13.7231 65.7668 13.6219C65.7536 13.446 65.7316 13.2746 65.7052 13.1031C65.6937 13.015 65.6788 12.9303 65.6635 12.8432C65.6613 12.8302 65.659 12.8172 65.6567 12.8041C65.6259 12.6194 65.5862 12.4391 65.5422 12.2589C65.5312 12.2171 65.5213 12.1753 65.5114 12.1335C65.5014 12.0918 65.4915 12.05 65.4805 12.0082C65.41 11.7444 65.3308 11.4806 65.2339 11.2256C65.2214 11.1821 65.2046 11.1408 65.188 11.1001C65.1811 11.0832 65.1743 11.0665 65.1678 11.0497C65.1458 10.9881 65.1281 10.931 65.1105 10.8738C65.0995 10.8452 65.0874 10.8166 65.0753 10.7881C65.0632 10.7595 65.0511 10.7309 65.0401 10.7023C65.0312 10.6737 65.0213 10.6441 65.0114 10.6144C65.0015 10.5847 64.9916 10.555 64.9828 10.5264C64.9699 10.4904 64.9555 10.4558 64.9413 10.4218C64.9313 10.3979 64.9214 10.3742 64.9123 10.3506C64.909 10.3398 64.9057 10.3288 64.9023 10.3177C64.8879 10.2703 64.8729 10.221 64.8551 10.1747C64.8421 10.1386 64.8277 10.104 64.8135 10.07C64.8036 10.0461 64.7937 10.0224 64.7846 9.99879C64.7771 9.97436 64.7687 9.94993 64.7603 9.92515C64.7489 9.89196 64.7374 9.85816 64.7273 9.82291C64.7163 9.79432 64.7042 9.76573 64.6921 9.73713C64.68 9.70856 64.6679 9.68 64.6568 9.65143C64.6535 9.64066 64.6502 9.62974 64.6469 9.61871C64.6324 9.57123 64.6175 9.52194 64.5996 9.47555C64.5867 9.43948 64.5723 9.40491 64.5581 9.37097C64.5481 9.347 64.5382 9.32333 64.5291 9.29967L64.529 9.29945C64.5114 9.24236 64.4938 9.18527 64.4719 9.12379L64.4058 8.95231C64.3948 8.92373 64.3849 8.89404 64.3749 8.86437C64.365 8.83469 64.3551 8.80501 64.3441 8.77643L64.278 8.60494C64.267 8.57416 64.2571 8.54448 64.2472 8.5148C64.2373 8.48512 64.2274 8.45544 64.2164 8.42466V8.42027C64.1239 8.17404 64.0226 7.9366 63.9125 7.69916C63.9073 7.68776 63.9021 7.67611 63.8968 7.66433C63.8798 7.62616 63.8622 7.58662 63.842 7.54966C63.7319 7.32102 63.6173 7.10117 63.4896 6.88132C63.4764 6.86153 63.4643 6.84174 63.4522 6.82196C63.4401 6.80217 63.4279 6.78238 63.4147 6.7626C63.2958 6.56033 63.1681 6.36687 63.0315 6.1734C63.0205 6.15801 63.0106 6.14262 63.0007 6.12723C62.9908 6.11184 62.9809 6.09645 62.9699 6.08106C62.8201 5.8744 62.6615 5.67654 62.4941 5.47867C62.4589 5.4347 62.4193 5.39073 62.3796 5.34676C62.2078 5.14889 62.0361 4.95982 61.8467 4.77515C61.829 4.75756 61.807 4.73558 61.785 4.71799C61.6132 4.5465 61.4282 4.37942 61.2388 4.21673C61.2206 4.20061 61.2015 4.18449 61.182 4.16794C61.1588 4.14839 61.1349 4.12824 61.1111 4.1068C60.9085 3.93972 60.7014 3.77703 60.4856 3.61874L60.3403 3.51321L60.3401 3.51311C60.1287 3.36804 59.9174 3.22297 59.6972 3.0823C59.6785 3.07296 59.6619 3.06141 59.6445 3.04922C59.6373 3.0442 59.63 3.03907 59.6223 3.03393C59.3844 2.88883 59.1378 2.74813 58.8867 2.61182C58.8294 2.57665 58.7678 2.54587 58.7061 2.51509C58.4551 2.37878 58.1996 2.25127 57.9353 2.12815C57.8868 2.11056 57.8428 2.08858 57.7988 2.06659C57.5521 1.95667 57.3054 1.85114 57.05 1.75001C56.9971 1.72802 56.9442 1.70604 56.887 1.68405C56.6095 1.57413 56.3232 1.473 56.0281 1.37626C55.962 1.34989 55.8916 1.32791 55.8211 1.30592L55.8211 1.30591C55.5215 1.20918 55.2132 1.11244 54.9005 1.0245C54.8939 1.0223 54.8884 1.0212 54.8829 1.02011C54.8773 1.01901 54.8718 1.01791 54.8652 1.01571C54.5569 0.932165 54.2398 0.853019 53.9226 0.77827C53.8852 0.769476 53.8489 0.760682 53.8125 0.751888C53.7762 0.743094 53.7398 0.7343 53.7024 0.725506C53.3809 0.655154 53.0549 0.584802 52.7246 0.523244C52.6885 0.518439 52.6524 0.512321 52.617 0.506325C52.5876 0.501348 52.5587 0.496454 52.5308 0.492465C52.218 0.435304 51.9053 0.38254 51.5837 0.33857C51.5353 0.329776 51.4868 0.320982 51.4384 0.316584C51.086 0.268217 50.7336 0.224247 50.3725 0.189071C50.2932 0.180277 50.2139 0.171483 50.1302 0.162689C49.769 0.127513 49.399 0.0967342 49.029 0.0747491C49.0092 0.0725506 48.9905 0.0714514 48.9718 0.0703521C48.953 0.0692529 48.9343 0.0681536 48.9145 0.0659551C48.5621 0.0483671 48.2054 0.030779 47.8442 0.021985C47.7737 0.017588 47.6988 0.013191 47.6239 0.013191C47.3024 0.00439701 46.9764 0 46.6505 0H46.4919C46.4347 0 46.3763 0.00109925 46.3179 0.0021985C46.2596 0.00329776 46.2012 0.00439701 46.144 0.00439701C45.8529 0.00867007 45.5618 0.0170957 45.2667 0.0256385L45.241 0.026382L44.849 0.0395731L44.7961 0.0423497C44.4785 0.0590239 44.157 0.0759058 43.8315 0.0967342L43.8196 0.0973923C43.7439 0.10158 43.6646 0.105967 43.5892 0.114322C43.1664 0.145101 42.7391 0.180277 42.3119 0.224247C42.2062 0.23304 42.0961 0.246229 41.986 0.259419L41.9859 0.259423C41.6987 0.290423 41.408 0.324838 41.1139 0.359658C41.0743 0.364349 41.0346 0.369047 40.9949 0.373746L40.9948 0.373753C40.8583 0.391338 40.7218 0.408925 40.5808 0.430907C40.2461 0.474877 39.9025 0.523244 39.5634 0.580405C39.4723 0.591767 39.3813 0.606391 39.2874 0.621468C39.2723 0.623895 39.2571 0.626333 39.2418 0.628772C38.8014 0.699124 38.3521 0.77827 37.9028 0.861813C37.8565 0.870607 37.8114 0.880501 37.7663 0.890394C37.7211 0.900287 37.676 0.91018 37.6297 0.918974C37.2685 0.989327 36.9029 1.06408 36.5373 1.14322C36.4669 1.15861 36.3953 1.174 36.3237 1.18939C36.2521 1.20478 36.1806 1.22017 36.1101 1.23556C35.8936 1.28327 35.6753 1.33456 35.4564 1.38601C35.3323 1.41516 35.2081 1.44437 35.0838 1.473C34.9605 1.50378 34.8371 1.53456 34.7094 1.56533C34.2469 1.67966 33.7888 1.80277 33.3219 1.93029C33.2647 1.94787 33.203 1.96546 33.1457 1.97865C32.7405 2.09298 32.3309 2.21169 31.9212 2.33481C31.8508 2.3568 31.7792 2.37878 31.7076 2.40077C31.636 2.42275 31.5645 2.44474 31.494 2.46672L31.4934 2.46692C31.15 2.57678 30.8066 2.68664 30.4589 2.7965C30.3906 2.82068 30.3212 2.84377 30.2519 2.86685C30.1825 2.88993 30.1131 2.91302 30.0448 2.9372C29.5735 3.09549 29.1022 3.25818 28.6265 3.42967C11.9064 9.50633 1.34833 21.2156 4.58137 30.0931C4.58642 30.1052 4.59148 30.1171 4.59649 30.1289C4.61327 30.1683 4.62946 30.2064 4.64303 30.247L4.7091 30.4449C4.71416 30.457 4.71922 30.4689 4.72423 30.4806C4.74101 30.5201 4.7572 30.5581 4.77077 30.5988C4.78178 30.6317 4.79279 30.6636 4.8038 30.6955C4.81481 30.7274 4.82582 30.7593 4.83684 30.7922C4.84189 30.8044 4.84695 30.8162 4.85195 30.828C4.86874 30.8674 4.88493 30.9055 4.8985 30.9461L4.96457 31.144C4.96963 31.1561 4.97469 31.168 4.97969 31.1798C4.99648 31.2192 5.01267 31.2572 5.02624 31.2979C5.04826 31.3638 5.07029 31.4298 5.09231 31.4914C5.10588 31.532 5.12207 31.57 5.13885 31.6095C5.14386 31.6213 5.14892 31.6331 5.15397 31.6453L5.22005 31.8431C5.24207 31.9003 5.26409 31.9574 5.29052 32.019C5.30814 32.0762 5.32576 32.1333 5.34778 32.1905L5.41385 32.362C5.42486 32.3927 5.43477 32.4224 5.44468 32.4521C5.45459 32.4818 5.4645 32.5115 5.47552 32.5422C5.48909 32.5829 5.50528 32.6209 5.52207 32.6604C5.52707 32.6722 5.53213 32.684 5.53718 32.6961C5.54819 32.7291 5.55921 32.761 5.57022 32.7929C5.58123 32.8248 5.59224 32.8566 5.60325 32.8896C7.60738 38.3815 14.351 41.3187 23.1691 41.3187C23.5744 41.3187 23.984 41.3099 24.398 41.2967C24.5126 41.2923 24.6315 41.2879 24.7504 41.2835L24.7702 41.2827C25.0809 41.2698 25.3959 41.2567 25.715 41.2351C25.7662 41.233 25.8185 41.2298 25.8712 41.2266C25.9274 41.2232 25.9842 41.2198 26.041 41.2175C26.9175 41.156 27.8117 41.068 28.7234 40.9537C28.7627 40.9494 28.8064 40.945 28.85 40.9406L28.8512 40.9405C29.2828 40.8834 29.7189 40.8218 30.1594 40.7515C30.199 40.7471 30.2386 40.7427 30.2783 40.7339C31.4896 40.5448 32.7185 40.3074 33.965 40.026L35.2908 60.0367L35.3525 60.9557L35.3613 60.9469C35.6124 65.3747 42.8184 68.9231 51.6762 68.9231C51.7151 68.9231 51.754 68.923 51.7928 68.9229C51.9693 68.9226 52.1452 68.9206 52.3202 68.9168ZM39.7087 65.2769C37.5483 64.0143 36.2378 62.4189 36.2378 60.7095C36.2378 57.9426 39.6708 55.4747 44.5841 54.2327C40.3337 55.5971 37.4764 58.1374 37.4764 61.046C37.4764 62.6031 38.2954 64.0548 39.7087 65.2769ZM35.0309 24.5309C34.564 24.5309 34.15 24.4386 33.8108 24.2803L34.7843 38.9135C36.806 38.4123 38.8498 37.7923 40.8848 37.0536C43.3117 36.1698 45.6242 35.1585 47.8001 34.046L38.9731 22.4247C38.863 22.6534 38.7133 22.8776 38.5106 23.0887C38.0746 23.5548 37.4359 23.9549 36.7135 24.2143C36.1453 24.421 35.5639 24.5309 35.0309 24.5309ZM36.2731 20.9517C36.0528 20.9957 35.8238 21.0573 35.5947 21.1408C34.3658 21.5893 33.551 22.4511 33.7756 23.0711C33.9122 23.4448 34.3967 23.6427 35.0309 23.6427C35.445 23.6427 35.9251 23.5592 36.4096 23.3789C37.6385 22.9348 38.4534 22.073 38.2243 21.453C38.2221 21.4464 38.2188 21.4398 38.2155 21.4332C38.2122 21.4266 38.2089 21.42 38.2067 21.4134L38.1847 21.3826L38.1715 21.387C37.9997 21.0485 37.5152 20.8726 36.8941 20.8858C36.8704 20.8858 36.8457 20.8868 36.8204 20.8879C36.794 20.889 36.767 20.8902 36.74 20.8902C36.7166 20.8921 36.6924 20.8949 36.6673 20.8978C36.6356 20.9015 36.6026 20.9053 36.5682 20.9078L36.5681 20.9078C36.4889 20.9166 36.4096 20.9254 36.3259 20.9429C36.3083 20.9473 36.2907 20.9517 36.2731 20.9517ZM11.043 32.4455C12.871 33.5887 15.3552 34.3846 18.346 34.7364L25.257 27.2834L11.043 32.4455ZM20.9271 39.705C21.0461 39.6786 21.165 39.6478 21.2883 39.6038C21.9843 39.3532 22.4424 38.8651 22.3146 38.5134C22.297 38.465 22.2662 38.421 22.2309 38.3859C22.2243 38.3793 22.2166 38.3738 22.2089 38.3683C22.2012 38.3628 22.1935 38.3573 22.1869 38.3507C22.1605 38.3287 22.1252 38.3067 22.09 38.2891C22.068 38.2759 22.0459 38.2672 22.0239 38.2628C21.9887 38.2452 21.9446 38.232 21.9006 38.2232C21.8912 38.2216 21.8823 38.2195 21.8736 38.2174C21.8579 38.2136 21.8427 38.21 21.8257 38.21C21.7728 38.2012 21.7156 38.1968 21.6583 38.1924H21.5923C21.4909 38.1924 21.3808 38.2056 21.2663 38.2232L21.187 38.2364C21.0725 38.2628 20.9492 38.2935 20.8258 38.3375C20.1343 38.5925 19.6718 39.0762 19.7995 39.428C19.8172 39.4763 19.848 39.5203 19.8876 39.5555C19.8928 39.5632 19.9011 39.5695 19.9097 39.576C19.9157 39.5805 19.9218 39.5852 19.9273 39.5906C19.9581 39.6126 19.9889 39.6346 20.0286 39.6522C20.0462 39.6654 20.0682 39.6742 20.0902 39.683L20.0903 39.683C20.1299 39.6962 20.1695 39.7094 20.2136 39.7182C20.2224 39.7196 20.2312 39.7216 20.24 39.7235C20.2576 39.7274 20.2753 39.7314 20.2929 39.7314C20.3413 39.7401 20.3986 39.7445 20.4558 39.7489H20.5219C20.6276 39.7489 20.7377 39.7357 20.8479 39.7182L20.9271 39.705ZM62.8818 11.2651C62.7628 11.2871 62.6439 11.3179 62.5206 11.3663C61.8246 11.6169 61.3665 12.105 61.4943 12.4567C61.5119 12.5051 61.5427 12.5447 61.578 12.5842C61.5884 12.5947 61.5989 12.6024 61.6115 12.6116C61.6149 12.6141 61.6183 12.6167 61.622 12.6194C61.6484 12.6414 61.6837 12.6634 61.7189 12.681C61.7365 12.6898 61.7586 12.6986 61.7806 12.7073C61.8202 12.7205 61.8643 12.7337 61.9083 12.7469C61.9215 12.7491 61.9337 12.7513 61.9458 12.7535C61.9579 12.7557 61.97 12.7579 61.9832 12.7601C62.0361 12.7689 62.0933 12.7733 62.1462 12.7733C62.1594 12.7733 62.1704 12.7744 62.1814 12.7755C62.1924 12.7766 62.2034 12.7777 62.2167 12.7777C62.318 12.7777 62.4281 12.7645 62.5426 12.7469C62.5558 12.7447 62.5679 12.7414 62.58 12.7381C62.5921 12.7348 62.6043 12.7315 62.6175 12.7293C62.7364 12.7073 62.8597 12.6766 62.9787 12.6326C63.6746 12.3776 64.1371 11.8895 64.0094 11.5421C63.9917 11.4894 63.9609 11.4498 63.9213 11.4102C63.9081 11.397 63.8948 11.3882 63.8816 11.3795C63.8508 11.3531 63.82 11.3311 63.7803 11.3135C63.7627 11.3047 63.7407 11.2959 63.7186 11.2871C63.679 11.2739 63.635 11.2607 63.5909 11.2519C63.5689 11.2431 63.5425 11.2387 63.516 11.2344C63.4632 11.2256 63.4103 11.2212 63.3531 11.2212C63.3398 11.2212 63.3288 11.2201 63.3178 11.219C63.3068 11.2179 63.2958 11.2168 63.2826 11.2168C63.1813 11.2168 63.0712 11.23 62.9566 11.2519C62.9346 11.2563 62.9082 11.2607 62.8818 11.2651Z" fill="white"/>
</g>
<defs>
<filter id="filter0_d" x="0" y="0" width="72" height="76.9231" filterUnits="userSpaceOnUse" color-interpolation-filters="sRGB">
<feFlood flood-opacity="0" result="BackgroundImageFix"/>
<feColorMatrix in="SourceAlpha" type="matrix" values="0 0 0 0 0 0 0 0 0 0 0 0 0 0 0 0 0 0 127 0"/>
<feOffset dy="4"/>
<feGaussianBlur stdDeviation="2"/>
<feColorMatrix type="matrix" values="0 0 0 0 0 0 0 0 0 0 0 0 0 0 0 0 0 0 0.25 0"/>
<feBlend mode="normal" in2="BackgroundImageFix" result="effect1_dropShadow"/>
<feBlend mode="normal" in="SourceGraphic" in2="effect1_dropShadow" result="shape"/>
</filter>
</defs>
</svg>
