<svg width="657" height="735" viewBox="0 0 657 735" fill="none" xmlns="http://www.w3.org/2000/svg">
<path opacity="0.08" fill-rule="evenodd" clip-rule="evenodd" d="M4.16396 342.185C2.8632 342.425 1.56244 342.762 0.213505 343.243C-7.39834 346.032 -12.4087 351.37 -11.0116 355.169C-10.8189 355.698 -10.4816 356.179 -10.0962 356.612C-10.0239 356.66 -9.93964 356.72 -9.85533 356.78C-9.77102 356.841 -9.68671 356.901 -9.61444 356.949C-9.39435 357.169 -9.11839 357.332 -8.8291 357.504C-8.73846 357.558 -8.64651 357.613 -8.55457 357.67L-7.83192 357.959C-7.44652 358.103 -6.96475 358.247 -6.48299 358.344C-6.33846 358.368 -6.20598 358.404 -6.07349 358.44C-5.94101 358.476 -5.80853 358.512 -5.664 358.536C-5.08588 358.584 -4.45959 358.632 -3.8333 358.68C-3.75301 358.68 -3.67271 358.685 -3.59242 358.691C-3.43183 358.702 -3.27124 358.712 -3.11066 358.68C-2.0026 358.68 -0.798199 358.584 0.454384 358.344C0.743443 358.295 1.0325 358.247 1.27338 358.199C2.57414 357.911 3.92307 357.574 5.27201 357.093C12.8357 354.352 17.8942 349.014 16.4971 345.166C16.3044 344.637 15.9671 344.204 15.5335 343.772C15.4768 343.687 15.3867 343.618 15.2927 343.547C15.227 343.497 15.1594 343.446 15.1 343.387C14.7627 343.146 14.4255 342.906 13.9919 342.714C13.7992 342.617 13.5583 342.521 13.3174 342.425C12.9665 342.269 12.6156 342.177 12.2135 342.07C12.1189 342.045 12.0213 342.02 11.9203 341.992C11.6794 341.944 11.3904 341.896 11.1013 341.848C10.5232 341.752 9.9451 341.704 9.31881 341.704C9.19837 341.704 9.07793 341.692 8.95749 341.68C8.83705 341.668 8.71661 341.655 8.59617 341.655C7.43994 341.655 6.23553 341.8 5.03113 341.992C4.74207 342.04 4.45301 342.088 4.16396 342.185ZM161.893 242.393L53.2555 228.639C32.1062 251.963 17.9424 275.384 11.3904 297.074L161.893 242.393ZM51.184 190.79C49.8832 191.031 48.5824 191.367 47.2335 191.896C39.6217 194.637 34.6113 199.976 36.0084 203.823C36.2011 204.352 36.5384 204.785 36.9238 205.218C37.0286 205.322 37.1587 205.402 37.2775 205.474C37.3225 205.501 37.3658 205.528 37.4055 205.554C37.7428 205.843 38.08 206.083 38.4654 206.276L39.1881 206.564C39.6217 206.709 40.0552 206.853 40.537 206.997C40.6815 207.021 40.814 207.045 40.9465 207.069C41.079 207.093 41.2115 207.117 41.356 207.141C41.9341 207.238 42.5604 207.286 43.1867 207.286C43.3071 207.286 43.4276 207.298 43.548 207.31C43.6684 207.322 43.7889 207.334 43.9093 207.334C45.0174 207.334 46.2218 207.19 47.4744 206.997C47.6189 206.973 47.7635 206.937 47.908 206.901C48.0525 206.865 48.1971 206.829 48.3416 206.805C49.5941 206.564 50.9431 206.228 52.292 205.699C59.9038 202.957 64.9142 197.619 63.5171 193.82C63.3244 193.243 62.9871 192.81 62.5535 192.377C62.4781 192.264 62.3436 192.181 62.2193 192.104C62.1849 192.082 62.1513 192.061 62.1199 192.04C61.7827 191.752 61.4455 191.511 61.0601 191.319L60.3374 191.031C59.9038 190.886 59.4703 190.742 58.9403 190.646C58.7332 190.563 58.4904 190.516 58.2733 190.474C58.2379 190.467 58.2032 190.46 58.1695 190.453C57.5914 190.357 56.9651 190.309 56.3388 190.309C56.2184 190.309 56.0979 190.297 55.9775 190.285C55.857 190.273 55.7366 190.261 55.6162 190.261C54.4599 190.309 53.2555 190.405 52.0511 190.646L51.184 190.79ZM258.101 195.792L228.135 113.554C184.728 131.156 145.079 152.845 111.452 177.228L258.101 195.792ZM245.479 78.1099C244.178 78.3985 242.877 78.7351 241.528 79.216C233.916 81.9573 228.906 87.2955 230.255 91.1429H230.303C230.496 91.6719 230.833 92.1528 231.219 92.5376C231.333 92.6517 231.447 92.7358 231.585 92.8374C231.622 92.8642 231.66 92.8922 231.7 92.9223C231.989 93.1628 232.327 93.4032 232.76 93.5956C232.953 93.6918 233.194 93.788 233.435 93.8842C233.736 94.0177 234.06 94.1049 234.391 94.194C234.537 94.2332 234.684 94.2729 234.832 94.317C234.976 94.341 235.109 94.3651 235.241 94.3891C235.374 94.4132 235.506 94.4372 235.651 94.4613C236.229 94.5575 236.807 94.6055 237.433 94.6055C237.674 94.6536 237.915 94.6536 238.204 94.6536C239.312 94.6536 240.517 94.5094 241.769 94.317C242.058 94.2689 242.299 94.2208 242.588 94.1246C243.889 93.8842 245.238 93.5475 246.539 93.0666C254.15 90.2772 259.209 84.939 257.812 81.1397C257.619 80.6107 257.282 80.1298 256.848 79.6969C256.776 79.6489 256.704 79.5887 256.631 79.5286C256.559 79.4685 256.487 79.4084 256.415 79.3603C256.34 79.3068 256.265 79.2509 256.188 79.1942C255.923 78.9962 255.644 78.7885 255.307 78.6389C255.114 78.5427 254.873 78.4465 254.632 78.3504C254.199 78.2061 253.717 78.0618 253.235 77.9656C253.133 77.9452 253.022 77.9161 252.906 77.8857C252.749 77.8445 252.582 77.8009 252.416 77.7733L252.412 77.7729C251.835 77.7249 251.258 77.6769 250.634 77.629C250.555 77.629 250.476 77.6239 250.396 77.6186C250.23 77.6078 250.057 77.5966 249.863 77.629C248.755 77.629 247.55 77.7252 246.298 77.9656C246.057 78.0137 245.768 78.0618 245.479 78.1099ZM279.973 365.702L275.059 292.072L192.822 380.803C220.909 378.398 250.2 373.3 279.973 365.702ZM302.808 176.266L400.221 71.1365C359.945 74.3587 317.02 83.0634 273.854 96.914L302.808 176.266ZM558.094 98.4529C538.438 85.5642 511.315 76.571 478.603 72.435L401.955 155.154L558.094 98.4529ZM461.212 41.8002C459.911 42.0888 458.61 42.4254 457.261 42.9064C449.65 45.6476 444.639 50.9859 446.036 54.8332C446.229 55.3623 446.566 55.8432 446.952 56.2279C447.024 56.3001 447.108 56.3602 447.193 56.4203C447.277 56.4804 447.361 56.5405 447.433 56.6127C447.771 56.8531 448.108 57.0936 448.493 57.2859C448.654 57.3821 448.814 57.4356 448.975 57.489C449.055 57.5157 449.136 57.5424 449.216 57.5745C449.65 57.7669 450.083 57.9111 450.565 58.0073C450.709 58.0314 450.842 58.0554 450.974 58.0795C451.107 58.1035 451.239 58.1276 451.384 58.1516C451.962 58.2478 452.588 58.2959 453.215 58.2959C453.455 58.344 453.696 58.344 453.937 58.344C455.045 58.344 456.25 58.1997 457.502 58.0073C457.791 57.9592 458.08 57.9111 458.369 57.815C459.622 57.5745 460.971 57.2379 462.32 56.7569C469.884 53.9676 474.942 48.6293 473.545 44.8301C473.352 44.301 473.015 43.8201 472.581 43.3873C472.485 43.2911 472.292 43.1468 472.148 43.0506C471.811 42.8102 471.473 42.5697 471.088 42.3293L470.365 42.0407C469.932 41.8964 469.498 41.7521 468.968 41.656C468.866 41.6356 468.755 41.6065 468.639 41.5761C468.482 41.5349 468.316 41.4913 468.149 41.4636C467.62 41.4155 466.994 41.3675 466.368 41.3194L466.367 41.3193H465.644C464.488 41.3193 463.283 41.4155 462.079 41.656L461.212 41.8002ZM532.898 227.917C555.493 203.919 570.765 179.825 578.039 157.366L416.986 215.894L530.634 230.274C531.405 229.504 532.175 228.687 532.898 227.917ZM541.762 288.514C543.015 288.225 544.364 287.888 545.713 287.407C553.325 284.666 558.335 279.328 556.938 275.481C556.745 274.952 556.408 274.519 556.023 274.086C555.918 273.981 555.788 273.902 555.669 273.83C555.624 273.802 555.581 273.776 555.541 273.749C555.204 273.461 554.866 273.22 554.481 273.028L553.758 272.739C553.439 272.598 553.12 272.508 552.782 272.413C552.661 272.379 552.537 272.345 552.409 272.306L551.542 272.162C551.012 272.066 550.386 272.018 549.76 272.018C549.639 272.018 549.519 272.006 549.398 271.994C549.278 271.982 549.158 271.97 549.037 271.97C547.881 271.97 546.725 272.114 545.472 272.306C545.327 272.331 545.183 272.367 545.038 272.403C544.894 272.439 544.749 272.475 544.605 272.499C543.304 272.739 542.003 273.076 540.654 273.557C533.043 276.346 528.032 281.684 529.429 285.484V285.532C529.622 286.061 529.959 286.494 530.345 286.926C530.489 287.023 530.682 287.167 530.826 287.263C531.164 287.552 531.501 287.792 531.886 287.985L532.609 288.273C533.043 288.417 533.476 288.562 533.958 288.658C534.247 288.754 534.488 288.802 534.777 288.85C535.355 288.946 535.981 288.994 536.608 288.994C536.728 288.994 536.849 289.006 536.969 289.018C537.089 289.031 537.21 289.043 537.33 289.043C538.438 288.994 539.643 288.898 540.895 288.658L541.762 288.514ZM369.388 268.651L406.965 318.138C429.367 306.885 450.469 294.573 469.643 281.348L369.388 268.651ZM478.459 574.326C531.886 574.326 579.822 586.157 612.533 604.864L442.038 380.37C417.66 392.97 391.501 404.464 363.799 414.563C340.338 423.076 317.117 430.049 294.329 435.628L307.771 637.76C330.172 601.017 398.101 574.326 478.459 574.326ZM614.688 710.808C635.093 697.568 647.268 681.395 647.268 664.162C647.268 635.495 613.574 609.762 564.354 595.581C607.156 610.946 635.458 637.573 635.458 667.846C635.458 683.491 627.899 698.162 614.688 710.808ZM486.981 753.898C581.639 751.661 657 712.356 657 664.162C657 652.235 652.327 640.789 643.896 630.353L644.233 630.498L633.827 616.791L450.709 375.753C451.312 375.44 451.902 375.116 452.492 374.791C453.082 374.466 453.672 374.142 454.274 373.829C455.142 373.348 456.057 372.867 456.972 372.386C459.862 370.8 462.655 369.165 465.449 367.531L465.451 367.529C466.424 367 467.378 366.452 468.325 365.909C468.927 365.564 469.526 365.22 470.124 364.884C472.774 363.297 475.424 361.71 478.025 360.123C478.82 359.642 479.615 359.149 480.41 358.656C481.205 358.163 482 357.67 482.795 357.189C484.667 356.026 486.539 354.836 488.392 353.659C489.067 353.23 489.738 352.803 490.407 352.38C490.804 352.12 491.198 351.863 491.589 351.607C492.718 350.871 493.826 350.148 494.935 349.398C495.875 348.767 496.815 348.142 497.752 347.519C499.313 346.482 500.867 345.449 502.402 344.397C502.701 344.187 502.997 343.98 503.291 343.774C504.278 343.083 505.243 342.408 506.208 341.704C514.736 335.788 522.877 329.729 530.586 323.525C531.935 322.467 533.332 321.361 534.632 320.303C536.704 318.619 538.679 316.936 540.654 315.253C542.1 314.051 543.497 312.848 544.894 311.646C546.041 310.672 547.155 309.682 548.264 308.694C549.018 308.023 549.77 307.354 550.531 306.692C551.009 306.247 551.488 305.808 551.965 305.37C552.88 304.531 553.787 303.698 554.674 302.845L554.676 302.843C556.458 301.209 558.239 299.574 559.925 297.892C561.322 296.593 562.671 295.246 564.02 293.9L564.026 293.894C565.662 292.261 567.298 290.628 568.886 288.994C569.858 287.992 570.79 286.99 571.734 285.975C572.239 285.431 572.749 284.883 573.27 284.329C575.727 281.684 578.135 278.991 580.496 276.298C581.893 274.711 583.29 273.124 584.639 271.537C585.507 270.504 586.351 269.449 587.188 268.402C587.56 267.938 587.93 267.475 588.301 267.016C589.601 265.429 590.854 263.89 592.058 262.303C592.87 261.257 593.658 260.186 594.439 259.125C594.771 258.675 595.101 258.227 595.431 257.783C596.635 256.147 597.791 254.56 598.948 252.925C599.079 252.738 599.211 252.55 599.344 252.361C600.233 251.096 601.144 249.798 601.983 248.501C602.811 247.294 603.615 246.063 604.412 244.843C604.727 244.36 605.041 243.88 605.355 243.403C605.644 242.938 605.939 242.472 606.234 242.007C606.822 241.078 607.411 240.148 607.957 239.219C609.257 237.151 610.462 235.035 611.618 232.919C611.907 232.414 612.196 231.921 612.485 231.428C612.774 230.935 613.063 230.442 613.352 229.937C614.942 226.955 616.484 223.926 617.929 220.896L617.933 220.887C618.462 219.736 618.99 218.584 619.519 217.385C620.386 215.461 621.253 213.49 622.072 211.518C622.602 210.219 623.084 208.969 623.566 207.67C624.288 205.795 624.963 203.967 625.589 202.092C625.676 201.831 625.763 201.573 625.849 201.316C626.195 200.29 626.534 199.283 626.842 198.244C627.468 196.321 627.998 194.445 628.528 192.521C628.694 191.829 628.877 191.137 629.057 190.454C629.189 189.951 629.321 189.452 629.443 188.963C629.973 186.75 630.407 184.586 630.84 182.422C630.908 182.014 630.998 181.594 631.089 181.17C631.191 180.694 631.294 180.211 631.37 179.729C631.9 176.699 632.286 173.669 632.575 170.639C632.639 170.155 632.661 169.691 632.682 169.221C632.693 168.991 632.703 168.76 632.719 168.523C632.912 166.215 633.056 163.858 633.105 161.55C633.105 161.021 633.093 160.492 633.08 159.963C633.068 159.434 633.056 158.905 633.056 158.376C633.056 156.404 633.008 154.48 632.864 152.509C632.816 151.402 632.719 150.248 632.575 149.142C632.43 147.218 632.189 145.343 631.9 143.467C631.774 142.505 631.612 141.579 631.445 140.627C631.42 140.484 631.395 140.341 631.37 140.197C631.033 138.177 630.599 136.205 630.118 134.234C629.997 133.777 629.889 133.32 629.78 132.863C629.672 132.406 629.564 131.949 629.443 131.492C628.672 128.607 627.805 125.721 626.745 122.932C626.609 122.456 626.425 122.005 626.244 121.56C626.168 121.375 626.093 121.192 626.023 121.008C625.782 120.336 625.59 119.712 625.397 119.088L625.396 119.085C625.276 118.772 625.143 118.459 625.011 118.146C624.878 117.834 624.746 117.521 624.626 117.209C624.529 116.896 624.421 116.572 624.312 116.247C624.204 115.922 624.096 115.598 623.999 115.285C623.858 114.89 623.7 114.512 623.545 114.141C623.436 113.879 623.328 113.62 623.228 113.362C623.192 113.244 623.156 113.124 623.119 113.004C622.961 112.484 622.798 111.945 622.602 111.438C622.461 111.043 622.303 110.665 622.149 110.294C622.039 110.032 621.931 109.773 621.831 109.514C621.749 109.247 621.658 108.98 621.566 108.71C621.442 108.346 621.315 107.976 621.205 107.59C621.085 107.278 620.952 106.965 620.82 106.653C620.687 106.34 620.555 106.027 620.434 105.715C620.398 105.597 620.361 105.477 620.325 105.356C620.167 104.837 620.003 104.298 619.808 103.791C619.667 103.396 619.509 103.018 619.354 102.647C619.245 102.385 619.137 102.126 619.037 101.867C618.844 101.242 618.652 100.617 618.411 99.9438L617.688 98.0682C617.568 97.7556 617.459 97.431 617.351 97.1063C617.243 96.7817 617.134 96.4571 617.014 96.1445L616.291 94.2689C616.171 93.9319 616.062 93.607 615.953 93.282C615.845 92.9577 615.737 92.6334 615.617 92.2971V92.249C614.605 89.5559 613.497 86.9589 612.292 84.3619C612.236 84.2373 612.179 84.1101 612.122 83.9814C611.935 83.5637 611.743 83.1312 611.522 82.7268C610.317 80.226 609.065 77.8214 607.668 75.4167C607.523 75.2003 607.391 74.9839 607.258 74.7675C607.126 74.5511 606.993 74.3347 606.849 74.1182C605.548 71.906 604.151 69.7899 602.657 67.6739C602.537 67.5056 602.428 67.3372 602.32 67.1689C602.212 67.0006 602.103 66.8323 601.983 66.6639C600.345 64.4036 598.61 62.2395 596.78 60.0753C596.394 59.5944 595.961 59.1135 595.527 58.6325C593.648 56.4684 591.769 54.4004 589.698 52.3805C589.505 52.1882 589.264 51.9477 589.023 51.7553C587.144 49.8797 585.121 48.0522 583.049 46.2728C582.851 46.0965 582.642 45.9201 582.427 45.7391C582.174 45.5252 581.913 45.3049 581.652 45.0705C579.436 43.243 577.172 41.4636 574.811 39.7323L573.222 38.5781L573.219 38.5762C570.907 36.9897 568.596 35.4034 566.188 33.865C565.983 33.7628 565.802 33.6364 565.612 33.503C565.533 33.4481 565.453 33.3921 565.369 33.336C562.767 31.749 560.069 30.21 557.323 28.7191C556.697 28.3344 556.023 27.9978 555.348 27.6611C552.602 26.1703 549.808 24.7756 546.917 23.429C546.388 23.2367 545.906 22.9964 545.424 22.756L545.424 22.7557C542.726 21.5534 540.028 20.3992 537.234 19.2931C536.656 19.0526 536.078 18.8121 535.451 18.5717C532.416 17.3694 529.285 16.2633 526.057 15.2052C525.334 14.9167 524.564 14.6762 523.793 14.4357C520.517 13.3777 517.144 12.3197 513.724 11.3578C513.652 11.3338 513.591 11.3218 513.531 11.3097C513.471 11.2977 513.411 11.2857 513.339 11.2617C509.966 10.3479 506.497 9.48224 503.029 8.66467C502.62 8.56855 502.222 8.47243 501.825 8.3763C501.427 8.28006 501.03 8.18381 500.62 8.08757C497.103 7.31809 493.538 6.54861 489.925 5.87532C489.53 5.82277 489.135 5.75585 488.748 5.69027C488.427 5.63583 488.111 5.5823 487.805 5.53868C484.385 4.91348 480.964 4.33637 477.447 3.85545L477.447 3.85538C476.917 3.75922 476.387 3.66307 475.857 3.61499C472.003 3.08597 468.149 2.60505 464.199 2.22031C463.332 2.12413 462.464 2.02794 461.549 1.93176C457.599 1.54702 453.552 1.21037 449.505 0.969912C449.288 0.945866 449.083 0.933843 448.879 0.921819C448.674 0.909796 448.469 0.897773 448.252 0.873728C444.398 0.681359 440.496 0.48899 436.546 0.392805C435.775 0.344713 434.956 0.296621 434.137 0.296621C430.62 0.200436 427.055 0.152344 423.49 0.152344H421.755C421.129 0.152344 420.491 0.164367 419.853 0.17639C419.214 0.188413 418.576 0.200436 417.95 0.200436C414.766 0.247174 411.582 0.339332 408.354 0.43277L408.073 0.440897C406.676 0.48899 405.231 0.537082 403.786 0.585174L403.207 0.615541C399.734 0.797916 396.217 0.982562 392.657 1.21037L392.527 1.21757C391.699 1.26338 390.831 1.31135 390.007 1.40274C385.382 1.73939 380.709 2.12413 376.036 2.60505C374.88 2.70123 373.676 2.84551 372.471 2.98979C369.329 3.32891 366.149 3.70539 362.932 4.0863C362.499 4.13754 362.066 4.18886 361.632 4.24019C360.138 4.43256 358.645 4.62492 357.103 4.86539C353.442 5.34631 349.684 5.87532 345.974 6.50052C344.978 6.6248 343.982 6.78476 342.956 6.94966C342.79 6.9762 342.624 7.00287 342.457 7.02954C337.64 7.79901 332.726 8.66467 327.812 9.57843C327.306 9.67461 326.812 9.78282 326.318 9.89102C325.825 9.99923 325.331 10.1074 324.825 10.2036C320.874 10.9731 316.876 11.7907 312.877 12.6563C312.106 12.8247 311.323 12.993 310.541 13.1613C309.758 13.3296 308.975 13.498 308.204 13.6663C305.836 14.1881 303.449 14.7491 301.055 15.3118C299.698 15.6307 298.338 15.9501 296.979 16.2633C295.63 16.5999 294.281 16.9365 292.884 17.2732C287.826 18.5236 282.815 19.8702 277.709 21.2648C277.082 21.4572 276.408 21.6496 275.782 21.7939C271.349 23.0443 266.869 24.3428 262.389 25.6893C261.617 25.9299 260.834 26.1704 260.051 26.4109C259.269 26.6513 258.486 26.8917 257.715 27.1321C253.958 28.3344 250.2 29.5367 246.394 30.739C245.647 31.0035 244.888 31.256 244.13 31.5085C243.371 31.761 242.612 32.0135 241.865 32.278C236.711 34.0093 231.556 35.7887 226.353 37.6643C43.4758 104.128 -72.0027 232.197 -36.6413 329.296C-36.586 329.428 -36.5306 329.558 -36.4759 329.687C-36.2923 330.119 -36.1153 330.534 -35.9668 330.979L-35.2442 333.143C-35.1889 333.276 -35.1335 333.406 -35.0788 333.535C-34.8952 333.966 -34.7182 334.382 -34.5697 334.826C-34.4493 335.187 -34.3289 335.536 -34.2084 335.884C-34.088 336.233 -33.9675 336.582 -33.8471 336.942C-33.7917 337.075 -33.7364 337.205 -33.6816 337.334C-33.4981 337.765 -33.3211 338.181 -33.1726 338.626L-32.45 340.79C-32.3946 340.922 -32.3393 341.052 -32.2845 341.181C-32.101 341.613 -31.9239 342.029 -31.7755 342.473L-31.7751 342.474C-31.5344 343.195 -31.2936 343.916 -31.0529 344.589C-30.9044 345.034 -30.7274 345.45 -30.5438 345.881C-30.4891 346.01 -30.4337 346.14 -30.3784 346.272L-29.6558 348.436C-29.4149 349.062 -29.174 349.687 -28.8849 350.36L-28.8848 350.361C-28.6922 350.986 -28.4995 351.611 -28.2586 352.236L-27.536 354.111C-27.4156 354.448 -27.3072 354.773 -27.1988 355.097C-27.0904 355.422 -26.982 355.747 -26.8615 356.083C-26.7131 356.528 -26.5361 356.944 -26.3525 357.375C-26.2978 357.504 -26.2424 357.634 -26.1871 357.766C-26.0666 358.127 -25.9462 358.476 -25.8257 358.824C-25.7053 359.173 -25.5849 359.522 -25.4644 359.882C-3.54424 419.95 70.2136 452.075 166.662 452.075C171.095 452.075 175.575 451.979 180.104 451.835C181.356 451.787 182.656 451.739 183.956 451.691H183.958L184.178 451.681C187.575 451.54 191.019 451.397 194.508 451.162C195.068 451.138 195.639 451.104 196.216 451.069C196.831 451.032 197.452 450.994 198.073 450.969C207.66 450.296 217.44 449.334 227.413 448.084C227.843 448.036 228.321 447.988 228.8 447.94L228.81 447.939C233.531 447.314 238.3 446.641 243.118 445.871C243.552 445.823 243.985 445.775 244.419 445.679C257.667 443.611 271.108 441.014 284.742 437.936L299.243 656.804L299.918 666.855L300.014 666.759C302.758 715.155 381.468 753.945 478.26 753.998C478.607 754 478.955 754 479.304 754C481.878 754 484.438 753.966 486.981 753.898ZM347.554 714.113C323.93 700.304 309.601 682.857 309.601 664.162C309.601 633.889 347.177 606.887 400.95 593.307C354.428 608.225 323.15 636.021 323.15 667.846C323.15 684.874 332.103 700.748 347.554 714.113ZM296.401 268.459C291.294 268.459 286.766 267.449 283.056 265.718L293.703 425.769C315.816 420.286 338.17 413.505 360.427 405.426C386.972 395.759 412.265 384.698 436.064 372.531L339.519 245.423C338.314 247.924 336.676 250.376 334.46 252.685C329.691 257.783 322.705 262.159 314.804 264.996C308.59 267.257 302.23 268.459 296.401 268.459ZM309.987 229.312C307.578 229.793 305.073 230.466 302.568 231.38C289.126 236.285 280.214 245.711 282.671 252.492C284.164 256.58 289.464 258.744 296.401 258.744C300.93 258.744 306.181 257.831 311.48 255.859C324.921 251.002 333.834 241.575 331.329 234.794C331.305 234.722 331.268 234.65 331.232 234.578C331.196 234.506 331.16 234.434 331.136 234.362L330.895 234.025L330.751 234.073C328.872 230.37 323.572 228.446 316.779 228.591C316.52 228.591 316.25 228.602 315.973 228.614C315.684 228.626 315.389 228.639 315.093 228.639C314.838 228.66 314.573 228.691 314.298 228.722C313.952 228.762 313.591 228.804 313.214 228.831L313.214 228.831C312.347 228.927 311.48 229.023 310.565 229.216C310.372 229.264 310.179 229.312 309.987 229.312ZM34.0332 355.025C54.0263 367.529 81.1977 376.234 113.909 380.081L189.498 298.565L34.0332 355.025ZM142.141 434.425C143.441 434.137 144.742 433.8 146.091 433.319C153.703 430.578 158.713 425.24 157.316 421.392C157.123 420.863 156.786 420.383 156.401 419.998C156.329 419.926 156.244 419.866 156.16 419.805C156.076 419.745 155.991 419.685 155.919 419.613C155.63 419.373 155.245 419.132 154.859 418.94C154.618 418.795 154.377 418.699 154.137 418.651C153.751 418.459 153.269 418.315 152.788 418.218C152.685 418.201 152.588 418.178 152.493 418.155C152.321 418.114 152.155 418.074 151.969 418.074C151.39 417.978 150.764 417.93 150.138 417.882H149.415C148.307 417.882 147.103 418.026 145.85 418.218L144.983 418.363C143.73 418.651 142.382 418.988 141.033 419.469C133.469 422.258 128.41 427.548 129.808 431.396C130 431.925 130.337 432.406 130.771 432.79C130.828 432.875 130.918 432.944 131.012 433.015C131.078 433.065 131.145 433.116 131.205 433.175C131.542 433.416 131.879 433.656 132.313 433.848C132.505 433.993 132.746 434.089 132.987 434.185C133.421 434.329 133.854 434.474 134.336 434.57C134.432 434.586 134.529 434.607 134.625 434.629C134.818 434.671 135.011 434.714 135.203 434.714C135.733 434.81 136.36 434.858 136.986 434.906H137.708C138.865 434.906 140.069 434.762 141.273 434.57L142.141 434.425ZM601.019 123.365C599.718 123.605 598.418 123.942 597.069 124.471C589.457 127.212 584.447 132.55 585.844 136.398C586.036 136.927 586.374 137.36 586.759 137.792C586.873 137.907 586.988 137.991 587.126 138.092C587.163 138.119 587.201 138.147 587.241 138.177C587.53 138.418 587.915 138.658 588.301 138.85C588.493 138.947 588.734 139.043 588.975 139.139C589.408 139.283 589.89 139.427 590.371 139.571L590.372 139.572C590.517 139.596 590.649 139.62 590.782 139.644C590.914 139.668 591.047 139.692 591.191 139.716C591.769 139.812 592.396 139.86 592.974 139.86C593.118 139.86 593.239 139.872 593.359 139.884C593.48 139.896 593.6 139.908 593.745 139.908C594.853 139.908 596.057 139.764 597.31 139.572C597.454 139.548 597.587 139.512 597.719 139.476C597.852 139.44 597.984 139.403 598.129 139.379C599.429 139.139 600.778 138.802 602.079 138.321C609.691 135.532 614.749 130.194 613.352 126.395C613.16 125.817 612.822 125.385 612.389 124.952C612.244 124.807 612.1 124.711 611.955 124.615C611.618 124.327 611.281 124.086 610.847 123.894C610.654 123.798 610.414 123.701 610.173 123.605C609.739 123.461 609.257 123.317 608.776 123.22C608.535 123.124 608.246 123.076 607.957 123.028C607.378 122.932 606.8 122.884 606.174 122.884C606.03 122.884 605.909 122.872 605.789 122.86C605.668 122.848 605.548 122.836 605.403 122.836C604.295 122.836 603.091 122.98 601.838 123.22C601.597 123.269 601.308 123.317 601.019 123.365Z" fill="#89A2A7"/>
</svg>
