<svg width="67" height="20" viewBox="0 0 67 20" fill="none" xmlns="http://www.w3.org/2000/svg">
<path d="M9.64953 9.81481L19.299 -1.65533e-06L26.9457 -1.32108e-06L17.2963 9.81481L23.8506 16.2963L39.6903 -7.63999e-07L47.337 -4.29749e-07L57.1685 9.81481L47.337 20L39.6903 20L49.5218 9.81481L43.6957 4.07407L27.674 20L19.299 20L9.64953 9.81481Z" fill="#89A2A7"/>
<path d="M61.356 5.74074L55.712 -4.93416e-07L67 0L61.356 5.74074Z" fill="#89A2A7"/>
<path d="M5.64403 5.74074L1.33514e-05 -4.93416e-07L11.2881 0L5.64403 5.74074Z" fill="#89A2A7"/>
<path d="M61.356 14.074L55.712 19.8147L67 19.8147L61.356 14.074Z" fill="#89A2A7"/>
<path d="M5.64407 14.074L4.3869e-05 19.8147L11.2881 19.8147L5.64407 14.074Z" fill="#89A2A7"/>
</svg>
