<svg width="67" height="20" viewBox="0 0 67 20" fill="none" xmlns="http://www.w3.org/2000/svg">
<path d="M9.64944 9.81481L19.2989 -1.65533e-06L26.9456 -1.32108e-06L17.2962 9.81481L23.8505 16.2963L39.6902 -7.63999e-07L47.3369 -4.29749e-07L57.1685 9.81481L47.3369 20L39.6902 20L49.5217 9.81481L43.6956 4.07407L27.6739 20L19.2989 20L9.64944 9.81481Z" fill="#F4F4F4"/>
<path d="M61.356 5.74074L55.712 -4.93416e-07L67 0L61.356 5.74074Z" fill="#F4F4F4"/>
<path d="M5.64406 5.74074L4.3869e-05 -4.93416e-07L11.2881 0L5.64406 5.74074Z" fill="#F4F4F4"/>
<path d="M61.356 14.074L55.712 19.8147L67 19.8147L61.356 14.074Z" fill="#F4F4F4"/>
<path d="M5.64407 14.074L4.3869e-05 19.8147L11.2881 19.8147L5.64407 14.074Z" fill="#F4F4F4"/>
</svg>
