<svg width="37" height="11" viewBox="0 0 37 11" fill="none" xmlns="http://www.w3.org/2000/svg">
<path d="M5.32882 5.39815L10.6576 -9.14139e-07L14.8805 -7.29553e-07L9.55164 5.39815L13.1712 8.96296L21.9185 -4.2191e-07L26.1413 -2.37324e-07L31.5707 5.39815L26.1413 11L21.9185 11L27.3479 5.39815L24.1305 2.24074L15.2826 11L10.6576 11L5.32882 5.39815Z" fill="#C2E44D"/>
<path d="M33.8832 3.15741L30.7663 -2.72484e-07L37 0L33.8832 3.15741Z" fill="#C2E44D"/>
<path d="M3.11685 3.15741L4.76837e-06 -2.72484e-07L6.2337 0L3.11685 3.15741Z" fill="#C2E44D"/>
<path d="M33.8832 7.74073L30.7663 10.8981L37 10.8981L33.8832 7.74073Z" fill="#C2E44D"/>
<path d="M3.11685 7.74073L4.76837e-06 10.8981L6.2337 10.8981L3.11685 7.74073Z" fill="#C2E44D"/>
</svg>
