<svg width="664" height="293" viewBox="0 0 664 293" fill="none" xmlns="http://www.w3.org/2000/svg">
<path d="M3.95117 272.914L7.4375 282.178L10.9155 272.914H13.6299V285H11.5381V281.016L11.7456 275.687L8.17627 285H6.67383L3.11279 275.695L3.32031 281.016V285H1.22852V272.914H3.95117ZM21.5322 276.019H23.541V285H21.5322V279.007L18.0127 285H16.0039V276.019H18.0127V282.012L21.5322 276.019ZM33.2944 285H31.2773V281.373H27.7827V285H25.7656V276.019H27.7827V279.762H31.2773V276.019H33.2944V285ZM39.1382 283.556C39.6418 283.556 40.0596 283.409 40.3916 283.116C40.7236 282.822 40.9007 282.46 40.9229 282.028H42.8237C42.8016 282.587 42.6273 283.11 42.3008 283.597C41.9743 284.079 41.5316 284.46 40.9727 284.743C40.4137 285.025 39.8105 285.166 39.1631 285.166C37.9069 285.166 36.9108 284.759 36.1748 283.946C35.4388 283.132 35.0708 282.009 35.0708 280.576V280.368C35.0708 279.001 35.436 277.908 36.1665 277.089C36.897 276.265 37.8931 275.853 39.1548 275.853C40.2228 275.853 41.0916 276.165 41.7612 276.791C42.4364 277.41 42.7905 278.227 42.8237 279.239H40.9229C40.9007 278.725 40.7236 278.301 40.3916 277.969C40.0651 277.637 39.6473 277.471 39.1382 277.471C38.4852 277.471 37.9816 277.709 37.6274 278.185C37.2733 278.655 37.0934 279.372 37.0879 280.335V280.659C37.0879 281.633 37.2622 282.36 37.6108 282.842C37.965 283.318 38.4741 283.556 39.1382 283.556ZM47.5386 281.447H46.5176V285H44.5005V276.019H46.5176V279.604H47.4058L49.8877 276.019H52.3779L49.1323 280.318L52.6519 285H50.0288L47.5386 281.447Z" fill="#537278"/>
<path d="M251.957 139.607H246.378V150H244.287V137.914H251.957V139.607ZM251.857 145.426C251.857 144.546 252.031 143.755 252.38 143.052C252.729 142.344 253.218 141.802 253.849 141.425C254.48 141.043 255.205 140.853 256.024 140.853C257.236 140.853 258.218 141.243 258.971 142.023C259.729 142.803 260.138 143.838 260.199 145.127L260.208 145.601C260.208 146.486 260.036 147.277 259.693 147.975C259.355 148.672 258.868 149.211 258.232 149.593C257.601 149.975 256.871 150.166 256.041 150.166C254.773 150.166 253.758 149.745 252.994 148.904C252.236 148.058 251.857 146.931 251.857 145.526V145.426ZM253.874 145.601C253.874 146.525 254.065 147.25 254.447 147.775C254.829 148.296 255.36 148.556 256.041 148.556C256.721 148.556 257.25 148.29 257.626 147.759C258.008 147.228 258.199 146.45 258.199 145.426C258.199 144.519 258.002 143.799 257.609 143.268C257.222 142.737 256.694 142.471 256.024 142.471C255.365 142.471 254.842 142.734 254.455 143.26C254.068 143.78 253.874 144.56 253.874 145.601ZM267.247 147.518L269.903 141.019H272.426V150H270.409V144.057L267.936 150H266.566L264.084 144.023V150H262.067V141.019H264.607L267.247 147.518ZM278.652 150.166C277.374 150.166 276.336 149.765 275.539 148.962C274.748 148.154 274.352 147.081 274.352 145.742V145.493C274.352 144.596 274.524 143.797 274.867 143.094C275.215 142.385 275.702 141.835 276.328 141.442C276.953 141.049 277.65 140.853 278.419 140.853C279.642 140.853 280.586 141.243 281.25 142.023C281.92 142.803 282.254 143.907 282.254 145.335V146.148H276.386C276.447 146.89 276.693 147.477 277.125 147.908C277.562 148.34 278.11 148.556 278.768 148.556C279.692 148.556 280.445 148.182 281.026 147.435L282.113 148.473C281.754 149.009 281.272 149.427 280.669 149.726C280.071 150.019 279.399 150.166 278.652 150.166ZM278.411 142.471C277.858 142.471 277.41 142.665 277.066 143.052C276.729 143.44 276.513 143.979 276.419 144.671H280.262V144.521C280.218 143.846 280.038 143.337 279.723 142.994C279.407 142.646 278.97 142.471 278.411 142.471ZM291.46 141.019V150H289.443V142.646H286.903L286.737 145.775C286.632 147.28 286.341 148.362 285.865 149.021C285.395 149.674 284.673 150 283.699 150H283.076L283.068 148.323L283.483 148.282C283.926 148.221 284.247 147.952 284.446 147.477C284.651 146.995 284.781 146.121 284.836 144.854L285.002 141.019H291.46ZM295.776 143.874H297.752C298.488 143.874 299.13 144.001 299.678 144.256C300.226 144.51 300.641 144.867 300.923 145.327C301.211 145.786 301.354 146.32 301.354 146.929C301.354 147.853 301.028 148.594 300.375 149.153C299.722 149.712 298.853 149.994 297.769 150H293.759V141.019H295.776V143.874ZM295.776 145.493V148.39H297.744C298.236 148.39 298.624 148.268 298.906 148.024C299.194 147.775 299.337 147.424 299.337 146.97C299.337 146.516 299.196 146.16 298.914 145.899C298.637 145.634 298.261 145.498 297.785 145.493H295.776Z" fill="#537278"/>
<path d="M591.951 8.91406L595.438 18.1777L598.916 8.91406H601.63V21H599.538V17.0156L599.746 11.6865L596.176 21H594.674L591.113 11.6948L591.32 17.0156V21H589.229V8.91406H591.951ZM603.547 16.4263C603.547 15.5464 603.722 14.755 604.07 14.0522C604.419 13.3439 604.909 12.8016 605.54 12.4253C606.17 12.0435 606.895 11.8525 607.714 11.8525C608.926 11.8525 609.909 12.2427 610.661 13.0229C611.419 13.8032 611.829 14.8381 611.89 16.1274L611.898 16.6006C611.898 17.486 611.726 18.2773 611.383 18.9746C611.046 19.6719 610.559 20.2114 609.922 20.5933C609.292 20.9751 608.561 21.166 607.731 21.166C606.464 21.166 605.448 20.7454 604.685 19.9043C603.926 19.0576 603.547 17.9315 603.547 16.5259V16.4263ZM605.564 16.6006C605.564 17.5247 605.755 18.2497 606.137 18.7754C606.519 19.2956 607.05 19.5557 607.731 19.5557C608.412 19.5557 608.94 19.29 609.316 18.7588C609.698 18.2275 609.889 17.45 609.889 16.4263C609.889 15.5187 609.693 14.7993 609.3 14.2681C608.912 13.7368 608.384 13.4712 607.714 13.4712C607.056 13.4712 606.533 13.734 606.146 14.2598C605.758 14.7799 605.564 15.5602 605.564 16.6006ZM619.584 13.6455H615.683V21H613.674V12.0186H619.584V13.6455ZM626.333 12.0186H628.342V21H626.333V15.0068L622.813 21H620.805V12.0186H622.813V18.0117L626.333 12.0186ZM638.12 12.0186V21H636.103V13.6455H633.563L633.397 16.7749C633.292 18.2801 633.001 19.362 632.525 20.0205C632.055 20.6735 631.333 21 630.359 21H629.736L629.728 19.3232L630.143 19.2817C630.586 19.2209 630.907 18.9525 631.106 18.4766C631.311 17.9951 631.441 17.1208 631.496 15.8535L631.662 12.0186H638.12ZM644.221 21.166C642.943 21.166 641.905 20.7648 641.108 19.9624C640.317 19.1545 639.921 18.0809 639.921 16.7417V16.4927C639.921 15.5962 640.093 14.7965 640.436 14.0938C640.785 13.3854 641.272 12.8348 641.897 12.4419C642.522 12.049 643.22 11.8525 643.989 11.8525C645.212 11.8525 646.155 12.2427 646.819 13.0229C647.489 13.8032 647.824 14.9072 647.824 16.335V17.1484H641.955C642.016 17.89 642.262 18.4766 642.694 18.9082C643.131 19.3398 643.679 19.5557 644.337 19.5557C645.262 19.5557 646.014 19.1821 646.595 18.4351L647.683 19.4727C647.323 20.0094 646.841 20.4272 646.238 20.7261C645.641 21.0194 644.968 21.166 644.221 21.166ZM643.98 13.4712C643.427 13.4712 642.979 13.6649 642.636 14.0522C642.298 14.4396 642.082 14.9792 641.988 15.6709H645.832V15.5215C645.787 14.8464 645.607 14.3372 645.292 13.9941C644.977 13.6455 644.539 13.4712 643.98 13.4712ZM649.55 21V12.0186H653.194C654.423 12.0186 655.358 12.2344 656 12.666C656.642 13.0921 656.963 13.7064 656.963 14.5088C656.963 14.9238 656.833 15.2974 656.573 15.6294C656.318 15.9559 655.939 16.2077 655.436 16.3848C656.022 16.5065 656.487 16.7528 656.83 17.1235C657.173 17.4943 657.345 17.9315 657.345 18.4351C657.345 19.2707 657.035 19.9071 656.415 20.3442C655.801 20.7814 654.915 21 653.759 21H649.55ZM651.567 17.1733V19.4062H653.775C654.81 19.4062 655.328 19.0355 655.328 18.2939C655.328 17.5469 654.802 17.1733 653.75 17.1733H651.567ZM651.567 15.729H653.228C654.373 15.729 654.946 15.3914 654.946 14.7163C654.946 14.008 654.403 13.6427 653.319 13.6206H651.567V15.729Z" fill="#537278"/>
<path d="M171.229 280.247C171.229 281.228 171.058 282.09 170.716 282.832C170.379 283.574 169.896 284.146 169.266 284.546C168.636 284.946 167.908 285.146 167.083 285.146C165.838 285.146 164.832 284.702 164.065 283.813C163.299 282.92 162.916 281.716 162.916 280.203V279.104C162.916 278.132 163.086 277.273 163.428 276.526C163.775 275.774 164.263 275.198 164.893 274.797C165.523 274.392 166.248 274.189 167.068 274.189C167.889 274.189 168.611 274.387 169.236 274.783C169.866 275.178 170.352 275.737 170.694 276.46C171.036 277.183 171.214 278.02 171.229 278.972V280.247ZM170.328 279.089C170.328 277.805 170.037 276.799 169.456 276.072C168.875 275.344 168.079 274.98 167.068 274.98C166.077 274.98 165.286 275.347 164.695 276.079C164.109 276.807 163.816 277.825 163.816 279.133V280.247C163.816 281.511 164.109 282.515 164.695 283.257C165.281 283.994 166.077 284.363 167.083 284.363C168.104 284.363 168.899 283.999 169.471 283.271C170.042 282.539 170.328 281.521 170.328 280.217V279.089ZM179.666 281.118C179.666 282.354 179.393 283.335 178.846 284.062C178.299 284.785 177.566 285.146 176.648 285.146C175.564 285.146 174.734 284.766 174.158 284.004V288.047H173.287V277.075H174.1L174.144 278.196C174.715 277.351 175.542 276.929 176.626 276.929C177.574 276.929 178.316 277.288 178.853 278.005C179.395 278.723 179.666 279.719 179.666 280.994V281.118ZM178.787 280.964C178.787 279.954 178.58 279.155 178.165 278.569C177.75 277.983 177.171 277.69 176.429 277.69C175.892 277.69 175.43 277.82 175.044 278.079C174.659 278.337 174.363 278.713 174.158 279.207V283.008C174.368 283.462 174.668 283.809 175.059 284.048C175.45 284.287 175.911 284.407 176.443 284.407C177.181 284.407 177.754 284.114 178.165 283.528C178.58 282.937 178.787 282.083 178.787 280.964ZM182.552 277.075V284.26H186.075V277.075H186.954V284.26H190.447V277.075H191.326V285H181.673V277.075H182.552ZM198.526 285C198.438 284.751 198.382 284.382 198.357 283.894C198.05 284.294 197.657 284.604 197.178 284.824C196.705 285.039 196.202 285.146 195.669 285.146C194.908 285.146 194.29 284.934 193.816 284.509C193.348 284.084 193.113 283.547 193.113 282.898C193.113 282.126 193.433 281.516 194.073 281.067C194.717 280.618 195.613 280.393 196.761 280.393H198.35V279.492C198.35 278.926 198.174 278.481 197.823 278.159C197.476 277.832 196.968 277.668 196.299 277.668C195.689 277.668 195.184 277.825 194.783 278.137C194.383 278.45 194.183 278.826 194.183 279.265L193.304 279.258C193.304 278.628 193.597 278.083 194.183 277.625C194.769 277.161 195.489 276.929 196.343 276.929C197.227 276.929 197.923 277.151 198.431 277.595C198.943 278.035 199.207 278.65 199.222 279.441V283.191C199.222 283.958 199.302 284.531 199.463 284.912V285H198.526ZM195.772 284.37C196.358 284.37 196.88 284.229 197.339 283.945C197.803 283.662 198.14 283.284 198.35 282.81V281.067H196.783C195.909 281.077 195.225 281.238 194.732 281.55C194.239 281.858 193.992 282.283 193.992 282.825C193.992 283.269 194.156 283.638 194.483 283.931C194.815 284.224 195.245 284.37 195.772 284.37Z" fill="#537278"/>
<path d="M354.241 131.336V141.238H358.504V131.336H359.405V141.238H363.653V131.336H364.554V141.26H365.564L365.499 144.571H364.7V142H353.333V131.336H354.241ZM369.791 140.74L372.105 134.075H373.05L369.666 143.348L369.49 143.758C369.056 144.72 368.384 145.201 367.476 145.201C367.266 145.201 367.042 145.167 366.802 145.098L366.795 144.373L367.249 144.417C367.679 144.417 368.025 144.31 368.289 144.095C368.558 143.885 368.785 143.521 368.97 143.003L369.358 141.934L366.37 134.075H367.33L369.791 140.74ZM380.052 142H379.173V138.667C378.45 138.931 377.759 139.063 377.1 139.063C376.05 139.063 375.289 138.833 374.815 138.375C374.341 137.911 374.095 137.19 374.075 136.214V134.075H374.947V136.17C374.957 136.927 375.123 137.474 375.445 137.811C375.772 138.143 376.324 138.309 377.1 138.309C377.808 138.289 378.499 138.162 379.173 137.928V134.075H380.052V142ZM387.603 134.075H388.482V142H387.603V135.489L383.326 142H382.454V134.075H383.326V140.594L387.603 134.075ZM396.919 142H396.041V138.367H391.771V142H390.892V134.075H391.771V137.627H396.041V134.075H396.919V142Z" fill="#537278"/>
<path d="M431.241 66.3359V76.2383H435.504V66.3359H436.405V76.2383H440.653V66.3359H441.554V77H430.333V66.3359H431.241ZM446.183 73.3672H444.967V77H444.081V69.0752H444.967V72.5908H446.168L449.076 69.0752H450.182L446.93 72.9204L450.541 77H449.383L446.183 73.3672ZM457.901 69.0752V77H457.022V69.8296H453.778L453.639 72.7959C453.58 73.8945 453.47 74.7344 453.309 75.3154C453.148 75.8916 452.909 76.3164 452.591 76.5898C452.274 76.8633 451.852 77 451.324 77H450.987V76.2236L451.258 76.209C451.761 76.1992 452.123 75.9551 452.342 75.4766C452.562 74.998 452.706 74.1436 452.774 72.9131L452.936 69.0752H457.901ZM459.776 72.9204C459.776 72.1587 459.923 71.4727 460.216 70.8623C460.514 70.252 460.931 69.7783 461.468 69.4414C462.01 69.0996 462.623 68.9287 463.307 68.9287C464.361 68.9287 465.216 69.2998 465.87 70.042C466.524 70.7793 466.852 71.7583 466.852 72.979V73.1621C466.852 73.9287 466.703 74.6196 466.405 75.2349C466.112 75.8452 465.697 76.3164 465.16 76.6484C464.623 76.9805 464.01 77.1465 463.321 77.1465C462.271 77.1465 461.417 76.7778 460.758 76.0405C460.104 75.2983 459.776 74.3169 459.776 73.0962V72.9204ZM460.655 73.1621C460.655 74.1094 460.899 74.8882 461.388 75.4985C461.881 76.104 462.525 76.4067 463.321 76.4067C464.112 76.4067 464.752 76.104 465.24 75.4985C465.733 74.8882 465.98 74.085 465.98 73.0889V72.9204C465.98 72.3149 465.868 71.7607 465.643 71.2578C465.418 70.7549 465.104 70.3667 464.698 70.0933C464.293 69.8149 463.829 69.6758 463.307 69.6758C462.525 69.6758 461.888 69.9834 461.395 70.5986C460.902 71.209 460.655 72.0098 460.655 73.001V73.1621ZM468.763 77V69.0752H471.671C472.677 69.0752 473.448 69.2559 473.985 69.6172C474.522 69.9736 474.791 70.4985 474.791 71.1919C474.791 71.5874 474.671 71.9414 474.432 72.2539C474.193 72.5615 473.844 72.7861 473.385 72.9277C473.902 73.0254 474.317 73.2476 474.63 73.5942C474.947 73.9409 475.106 74.3438 475.106 74.8027C475.106 75.501 474.847 76.043 474.33 76.4287C473.817 76.8096 473.089 77 472.147 77H468.763ZM469.635 73.3525V76.2676H472.176C472.835 76.2676 473.343 76.1406 473.7 75.8867C474.056 75.6328 474.234 75.2666 474.234 74.7881C474.234 74.3486 474.056 73.9995 473.7 73.7407C473.343 73.4819 472.835 73.3525 472.176 73.3525H469.635ZM469.635 72.6201H471.854C473.231 72.6006 473.919 72.1318 473.919 71.2139C473.919 70.7305 473.729 70.3789 473.348 70.1592C472.972 69.9346 472.413 69.8223 471.671 69.8223H469.635V72.6201Z" fill="#537278"/>
<path d="M536.542 110.336L540.475 119.748L544.422 110.336H545.624V121H544.723V116.356L544.796 111.596L540.826 121H540.13L536.175 111.632L536.249 116.327V121H535.348V110.336H536.542ZM553.9 113.075V121H553.021V117.807H550.56L548.626 121H547.66L549.652 117.697C549.11 117.555 548.688 117.282 548.385 116.876C548.087 116.471 547.938 115.993 547.938 115.441C547.938 114.723 548.194 114.149 548.707 113.72C549.225 113.29 549.923 113.075 550.802 113.075H553.9ZM548.817 115.456C548.817 115.919 548.963 116.3 549.256 116.598C549.554 116.896 549.967 117.05 550.494 117.06H553.021V113.822H550.78C550.169 113.822 549.688 113.969 549.337 114.262C548.99 114.555 548.817 114.953 548.817 115.456ZM556.083 120.26L556.471 119.755C557.086 118.92 557.44 117.699 557.533 116.093L557.672 113.075H562.352V120.26H563.172V123.329H562.301V121H556.346V123.329H555.504L555.511 120.26H556.083ZM557.093 120.26H561.473V113.896H558.507L558.412 115.954C558.324 117.843 557.884 119.279 557.093 120.26ZM567.933 121.146C567.259 121.146 566.649 120.98 566.102 120.648C565.56 120.316 565.138 119.855 564.835 119.264C564.532 118.668 564.381 118.002 564.381 117.265V116.95C564.381 116.188 564.527 115.502 564.82 114.892C565.118 114.281 565.531 113.803 566.058 113.456C566.585 113.104 567.157 112.929 567.772 112.929C568.734 112.929 569.496 113.258 570.057 113.917C570.624 114.572 570.907 115.468 570.907 116.605V117.096H565.252V117.265C565.252 118.163 565.509 118.913 566.021 119.513C566.539 120.109 567.188 120.407 567.97 120.407C568.438 120.407 568.851 120.321 569.208 120.15C569.569 119.979 569.896 119.706 570.189 119.33L570.738 119.748C570.094 120.68 569.159 121.146 567.933 121.146ZM567.772 113.676C567.113 113.676 566.556 113.917 566.102 114.401C565.653 114.884 565.379 115.534 565.282 116.349H570.035V116.254C570.011 115.492 569.793 114.872 569.383 114.394C568.973 113.915 568.436 113.676 567.772 113.676ZM578.707 113.075V121H577.828V113.83H574.583L574.444 116.796C574.386 117.895 574.276 118.734 574.115 119.315C573.954 119.892 573.714 120.316 573.397 120.59C573.08 120.863 572.657 121 572.13 121H571.793V120.224L572.064 120.209C572.567 120.199 572.928 119.955 573.148 119.477C573.368 118.998 573.512 118.144 573.58 116.913L573.741 113.075H578.707ZM582.032 115.954H584.317C584.903 115.954 585.416 116.061 585.855 116.276C586.3 116.486 586.634 116.779 586.859 117.155C587.088 117.531 587.203 117.968 587.203 118.466C587.203 119.232 586.939 119.848 586.412 120.312C585.89 120.771 585.182 121 584.288 121H581.161V113.075H582.032V115.954ZM582.032 116.701V120.26H584.303C584.933 120.26 585.426 120.102 585.782 119.784C586.144 119.467 586.324 119.032 586.324 118.48C586.324 117.953 586.148 117.528 585.797 117.206C585.45 116.879 584.974 116.71 584.369 116.701H582.032Z" fill="#537278"/>
<circle cx="29.5" cy="240.5" r="16" stroke="#537278"/>
<circle cx="167.5" cy="249.5" r="12" fill="#537278" stroke="#537278"/>
<circle cx="286.5" cy="187.5" r="16" stroke="#537278"/>
<circle cx="623.5" cy="54.5" r="16" stroke="#537278"/>
<circle cx="454" cy="100" r="9" fill="#537278"/>
<circle cx="540" cy="91" r="9" fill="#537278"/>
<circle cx="623.5" cy="54.5" r="12.5" fill="#537278"/>
<circle cx="365" cy="110" r="9" fill="#537278"/>
<circle cx="286.5" cy="187.5" r="12.5" fill="#537278"/>
<circle cx="167.5" cy="249.5" r="8.5" fill="#537278"/>
<circle cx="29.5" cy="240.5" r="12.5" fill="#537278"/>
<path d="M26 238C108.5 268 184 256.5 239 225.5C294 194.5 314 142.5 361.5 114C409 85.5 478 114.5 540.5 91.5C603 68.5 625.5 52 625.5 52" stroke="#537278"/>
</svg>
